<?xml version="1.0" encoding="utf-8"?>
<!-- Generator: Adobe Illustrator 23.0.3, SVG Export Plug-In . SVG Version: 6.00 Build 0)  -->
<svg version="1.1" id="Layer_1" xmlns="http://www.w3.org/2000/svg" xmlns:xlink="http://www.w3.org/1999/xlink" x="0px" y="0px"
	 viewBox="0 0 2000 880.9" style="enable-background:new 0 0 2000 880.9;" xml:space="preserve">
<style type="text/css">
	.st0{fill:#FFFFFF;}
	.st1{fill:url(#SVGID_1_);}
	.st2{clip-path:url(#SVGID_3_);}
	.st3{fill:url(#SVGID_4_);}
	.st4{clip-path:url(#SVGID_6_);}
	.st5{fill:#DAE4F4;}
	.st6{fill:none;stroke:#0A2A3C;stroke-width:2;stroke-miterlimit:10;}
	.st7{fill:none;stroke:#FFFFFF;stroke-width:2;stroke-miterlimit:10;}
	.st8{fill:url(#SVGID_7_);}
	.st9{opacity:0.5;fill:none;stroke:#FFFFFF;stroke-width:2;stroke-miterlimit:10;enable-background:new    ;}
	.st10{fill:url(#SVGID_8_);}
	.st11{fill:url(#SVGID_9_);}
	.st12{fill:url(#SVGID_10_);}
	.st13{fill:none;stroke:#36C2DB;stroke-width:2;stroke-miterlimit:10;}
	.st14{opacity:0.5;fill:url(#SVGID_11_);enable-background:new    ;}
	.st15{fill:#F26C5D;}
	.st16{opacity:0.5;fill:url(#SVGID_12_);enable-background:new    ;}
	.st17{fill:#21B787;}
	.st18{opacity:0.5;fill:url(#SVGID_13_);enable-background:new    ;}
	.st19{fill:#77CFE3;}
	.st20{fill:#B7E3F0;}
	.st21{fill:#FDC485;}
	.st22{fill:none;stroke:#072A3D;stroke-width:2;stroke-miterlimit:10;}
	.st23{fill:#072A3D;}
	.st24{fill:none;stroke:#0A2A3C;stroke-width:2;stroke-miterlimit:10;stroke-dasharray:10;}
	.st25{fill:#FAAA4B;}
	.st26{fill:none;stroke:#B7E3F0;stroke-width:2;stroke-miterlimit:10;}
	.st27{fill:#0A2A3C;}
	.st28{clip-path:url(#SVGID_15_);}
	.st29{clip-path:url(#SVGID_17_);}
	.st30{fill:#36C2DB;}
	.st31{opacity:0.5;fill:#FDC485;enable-background:new    ;}
	.st32{fill:#7F623F;}
	.st33{fill:#CD8129;}
	.st34{fill:#18160C;}
	.st35{clip-path:url(#SVGID_19_);}
	.st36{clip-path:url(#SVGID_21_);}
	.st37{fill:none;stroke:#0A2A3C;stroke-width:2;stroke-miterlimit:10;stroke-dasharray:10,10;}
</style>
<g id="Background">
	<rect y="-127.4" class="st0" width="2000" height="1125"/>
	
		<radialGradient id="SVGID_1_" cx="955.6054" cy="2941.405" r="693.5666" gradientTransform="matrix(1 0 0 -0.158 0 1208.3954)" gradientUnits="userSpaceOnUse">
		<stop  offset="0" style="stop-color:#77CFE3"/>
		<stop  offset="0.1353" style="stop-color:#80D2E5;stop-opacity:0.8647"/>
		<stop  offset="0.3585" style="stop-color:#99DBEA;stop-opacity:0.6415"/>
		<stop  offset="0.642" style="stop-color:#C2E9F2;stop-opacity:0.358"/>
		<stop  offset="0.9718" style="stop-color:#FAFDFE;stop-opacity:2.819538e-02"/>
		<stop  offset="1" style="stop-color:#FFFFFF;stop-opacity:0"/>
	</radialGradient>
	<rect x="244.8" y="729.7" class="st1" width="1433.7" height="147.9"/>
	<g>
		<g>
			<defs>
				<rect id="SVGID_2_" x="244.8" y="729.7" width="1433.7" height="147.9"/>
			</defs>
			<clipPath id="SVGID_3_">
				<use xlink:href="#SVGID_2_"  style="overflow:visible;"/>
			</clipPath>
			<g class="st2">
				
					<image style="overflow:visible;enable-background:new    ;" width="1085" height="206" xlink:href="60D93D005CC63DBC.png"  transform="matrix(0.9989 0 0 0.9989 372.1335 657.3842)">
				</image>
			</g>
		</g>
	</g>
	
		<linearGradient id="SVGID_4_" gradientUnits="userSpaceOnUse" x1="803.1" y1="146.134" x2="803.1" y2="756.834" gradientTransform="matrix(1 0 0 -1 0 871.2681)">
		<stop  offset="0" style="stop-color:#FFFFFF;stop-opacity:0"/>
		<stop  offset="0.146" style="stop-color:#D9F0F7;stop-opacity:0.4252"/>
		<stop  offset="0.2688" style="stop-color:#C0E7F2;stop-opacity:0.783"/>
		<stop  offset="0.3432" style="stop-color:#B7E3F0"/>
		<stop  offset="1" style="stop-color:#77CFE3"/>
	</linearGradient>
	<rect x="385.6" y="114.4" class="st3" width="835" height="610.7"/>
	<g>
		<g>
			<defs>
				<rect id="SVGID_5_" x="385.6" y="114.4" width="835" height="610.7"/>
			</defs>
			<clipPath id="SVGID_6_">
				<use xlink:href="#SVGID_5_"  style="overflow:visible;"/>
			</clipPath>
			<g class="st4">
				
					<image style="overflow:visible;enable-background:new    ;" width="627" height="346" xlink:href="60D93D005CC63DBD.png"  transform="matrix(0.9981 0 0 0.9981 712.1541 59.9997)">
				</image>
			</g>
		</g>
	</g>
	<g>
		<rect x="446.2" y="211.8" class="st5" width="152" height="152"/>
		<g>
			<line class="st6" x1="469.9" y1="340.1" x2="574.4" y2="235.6"/>
			<line class="st6" x1="469.9" y1="235.6" x2="574.4" y2="340.1"/>
		</g>
		<rect x="455.3" y="220.9" class="st7" width="133.8" height="133.8"/>
	</g>
	<g>
		
			<linearGradient id="SVGID_7_" gradientUnits="userSpaceOnUse" x1="522.2" y1="362.4331" x2="522.2" y2="243.702" gradientTransform="matrix(1 0 0 -1 0 871.2681)">
			<stop  offset="0" style="stop-color:#DAE4F4"/>
			<stop  offset="0.3557" style="stop-color:#E3EBF7;stop-opacity:0.6443"/>
			<stop  offset="0.9409" style="stop-color:#FCFDFE;stop-opacity:5.912524e-02"/>
			<stop  offset="1" style="stop-color:#FFFFFF;stop-opacity:0"/>
		</linearGradient>
		<rect x="446.2" y="498.5" class="st8" width="152" height="152"/>
		<rect x="455.3" y="507.6" class="st9" width="133.8" height="133.8"/>
	</g>
	<g>
		
			<linearGradient id="SVGID_8_" gradientUnits="userSpaceOnUse" x1="714.2" y1="362.4331" x2="714.2" y2="243.702" gradientTransform="matrix(1 0 0 -1 0 871.2681)">
			<stop  offset="0" style="stop-color:#DAE4F4"/>
			<stop  offset="0.3557" style="stop-color:#E3EBF7;stop-opacity:0.6443"/>
			<stop  offset="0.9409" style="stop-color:#FCFDFE;stop-opacity:5.912524e-02"/>
			<stop  offset="1" style="stop-color:#FFFFFF;stop-opacity:0"/>
		</linearGradient>
		<rect x="638.2" y="498.5" class="st10" width="152" height="152"/>
		<rect x="647.3" y="507.6" class="st9" width="133.8" height="133.8"/>
	</g>
	<g>
		
			<linearGradient id="SVGID_9_" gradientUnits="userSpaceOnUse" x1="909.1" y1="362.4331" x2="909.1" y2="243.702" gradientTransform="matrix(1 0 0 -1 0 871.2681)">
			<stop  offset="0" style="stop-color:#DAE4F4"/>
			<stop  offset="0.3557" style="stop-color:#E3EBF7;stop-opacity:0.6443"/>
			<stop  offset="0.9409" style="stop-color:#FCFDFE;stop-opacity:5.912524e-02"/>
			<stop  offset="1" style="stop-color:#FFFFFF;stop-opacity:0"/>
		</linearGradient>
		<rect x="833.1" y="498.5" class="st11" width="152" height="152"/>
		<rect x="842.2" y="507.6" class="st9" width="133.8" height="133.8"/>
	</g>
	<g>
		
			<linearGradient id="SVGID_10_" gradientUnits="userSpaceOnUse" x1="1101.1" y1="362.4331" x2="1101.1" y2="243.702" gradientTransform="matrix(1 0 0 -1 0 871.2681)">
			<stop  offset="0" style="stop-color:#DAE4F4"/>
			<stop  offset="0.3557" style="stop-color:#E3EBF7;stop-opacity:0.6443"/>
			<stop  offset="0.9409" style="stop-color:#FCFDFE;stop-opacity:5.912524e-02"/>
			<stop  offset="1" style="stop-color:#FFFFFF;stop-opacity:0"/>
		</linearGradient>
		<rect x="1025.1" y="498.5" class="st12" width="152" height="152"/>
		<rect x="1034.2" y="507.6" class="st9" width="133.8" height="133.8"/>
	</g>
	<g>
		<rect x="638.2" y="211.8" class="st5" width="152" height="152"/>
		<g>
			<line class="st6" x1="661.9" y1="340.1" x2="766.4" y2="235.6"/>
			<line class="st6" x1="661.9" y1="235.6" x2="766.4" y2="340.1"/>
		</g>
		<rect x="647.3" y="220.9" class="st7" width="133.8" height="133.8"/>
	</g>
	<g>
		<rect x="833.1" y="211.8" class="st5" width="152" height="152"/>
		<rect x="842.2" y="220.9" class="st7" width="133.8" height="133.8"/>
	</g>
	<g>
		<rect x="1025.1" y="211.8" class="st5" width="152" height="152"/>
		<g>
			<line class="st13" x1="1048.8" y1="340.1" x2="1153.3" y2="235.6"/>
			<line class="st13" x1="1048.8" y1="235.6" x2="1153.3" y2="340.1"/>
		</g>
		<rect x="1034.2" y="220.9" class="st7" width="133.8" height="133.8"/>
	</g>
	<rect x="455.3" y="374.2" class="st5" width="119.9" height="8.9"/>
	<rect x="455.3" y="389.5" class="st5" width="94.2" height="8.9"/>
	<rect x="455.3" y="404.9" class="st5" width="110.9" height="8.9"/>
	<rect x="455.3" y="420.2" class="st5" width="133.8" height="8.9"/>
	<path class="st5" d="M578.7,479.4h-113c-10.8,0-19.5-8.7-19.5-19.5l0,0c0-10.8,8.7-19.5,19.5-19.5h113c10.8,0,19.5,8.7,19.5,19.5
		l0,0C598.2,470.6,589.5,479.4,578.7,479.4z"/>
	<g>
		
			<linearGradient id="SVGID_11_" gradientUnits="userSpaceOnUse" x1="465.6" y1="411.334" x2="572.9" y2="411.334" gradientTransform="matrix(1 0 0 -1 0 871.2681)">
			<stop  offset="0" style="stop-color:#F26C5D"/>
			<stop  offset="0.1188" style="stop-color:#F37466;stop-opacity:0.8812"/>
			<stop  offset="0.315" style="stop-color:#F58B7F;stop-opacity:0.685"/>
			<stop  offset="0.5641" style="stop-color:#F8B0A8;stop-opacity:0.4359"/>
			<stop  offset="0.8535" style="stop-color:#FDE3E0;stop-opacity:0.1465"/>
			<stop  offset="1" style="stop-color:#FFFFFF;stop-opacity:0"/>
		</linearGradient>
		<rect x="465.6" y="445.9" class="st14" width="107.3" height="28"/>
		<circle class="st15" cx="465.6" cy="459.9" r="14"/>
	</g>
	<rect x="855.7" y="374.2" class="st5" width="119.9" height="8.9"/>
	<rect x="855.7" y="389.5" class="st5" width="94.2" height="8.9"/>
	<rect x="855.7" y="404.9" class="st5" width="110.9" height="8.9"/>
	<rect x="855.7" y="420.2" class="st5" width="133.8" height="8.9"/>
	<path class="st5" d="M979.1,479.4h-113c-10.8,0-19.5-8.7-19.5-19.5l0,0c0-10.8,8.7-19.5,19.5-19.5h113c10.8,0,19.5,8.7,19.5,19.5
		l0,0C998.6,470.6,989.8,479.4,979.1,479.4z"/>
	<g>
		
			<linearGradient id="SVGID_12_" gradientUnits="userSpaceOnUse" x1="2779.4834" y1="-617.3994" x2="2886.7834" y2="-617.3994" gradientTransform="matrix(-1 0 0 1 3758.0835 1077.3334)">
			<stop  offset="0.1054" style="stop-color:#21B787"/>
			<stop  offset="1" style="stop-color:#FFFFFF;stop-opacity:0"/>
		</linearGradient>
		<polygon class="st16" points="871.3,445.9 978.6,445.9 978.6,473.9 871.3,473.9 		"/>
		<circle class="st17" cx="978.6" cy="459.9" r="14"/>
	</g>
	<rect x="1039.2" y="374.2" class="st5" width="119.9" height="8.9"/>
	<rect x="1039.2" y="389.5" class="st5" width="94.2" height="8.9"/>
	<rect x="1039.2" y="404.9" class="st5" width="110.9" height="8.9"/>
	<rect x="1039.2" y="420.2" class="st5" width="133.8" height="8.9"/>
	<path class="st5" d="M1162.6,479.4h-113c-10.8,0-19.5-8.7-19.5-19.5l0,0c0-10.8,8.7-19.5,19.5-19.5h113c10.8,0,19.5,8.7,19.5,19.5
		l0,0C1182.1,470.6,1173.3,479.4,1162.6,479.4z"/>
	<g>
		
			<linearGradient id="SVGID_13_" gradientUnits="userSpaceOnUse" x1="2595.9834" y1="-617.3994" x2="2703.2832" y2="-617.3994" gradientTransform="matrix(-1 0 0 1 3758.0835 1077.3334)">
			<stop  offset="0.1054" style="stop-color:#21B787"/>
			<stop  offset="1" style="stop-color:#FFFFFF;stop-opacity:0"/>
		</linearGradient>
		<polygon class="st18" points="1054.8,445.9 1162.1,445.9 1162.1,473.9 1054.8,473.9 		"/>
		<circle class="st17" cx="1162.1" cy="459.9" r="14"/>
	</g>
	<line class="st7" x1="409.6" y1="154.8" x2="1195.6" y2="154.8"/>
	<g>
		<path class="st0" d="M420.1,126.7c4.7,0,8.5,3.8,8.5,8.5s-3.8,8.5-8.5,8.5s-8.5-3.8-8.5-8.5S415.4,126.7,420.1,126.7 M420.1,124.7
			c-5.8,0-10.5,4.7-10.5,10.5s4.7,10.5,10.5,10.5s10.5-4.7,10.5-10.5C430.6,129.4,425.9,124.7,420.1,124.7L420.1,124.7z"/>
	</g>
	<circle class="st5" cx="448.9" cy="135.2" r="10.5"/>
	
		<image style="overflow:visible;opacity:0.5;enable-background:new    ;" width="883" height="636" xlink:href="60D93D005CC63DB2.png"  transform="matrix(0.9987 0 0 0.9987 1071.8375 69.2325)">
	</image>
	
		<image style="overflow:visible;enable-background:new    ;" width="889" height="482" xlink:href="60D93D005CC63DB3.png"  transform="matrix(0.9987 0 0 0.9987 43.1132 364.0705)">
	</image>
</g>
<g id="chart">
	<g>
		<g>
			<rect x="1587.9" y="488.6" class="st19" width="36.2" height="110.5"/>
			<rect x="1640.5" y="460.6" class="st5" width="36.2" height="138.5"/>
			<rect x="1693.2" y="447.7" class="st20" width="36.2" height="151.3"/>
			<rect x="1745.9" y="380.8" class="st21" width="36.2" height="218.2"/>
		</g>
		<g>
			<g>
				<line class="st22" x1="1577.7" y1="506.1" x2="1771.3" y2="351.4"/>
				<g>
					<polygon class="st23" points="1771.2,362 1769.3,361.7 1770.7,351.9 1760.9,351.2 1761,349.2 1773,350.1 					"/>
				</g>
			</g>
		</g>
		<polyline class="st24" points="1577.7,515.9 1577.7,608.7 1825,608.7 		"/>
		<circle class="st22" cx="1782" cy="481.5" r="20.9"/>
		<line class="st22" x1="1833.9" y1="438.4" x2="1869.4" y2="438.4"/>
		<line class="st22" x1="1833.9" y1="447.7" x2="1869.4" y2="447.7"/>
		<line class="st22" x1="1833.9" y1="457" x2="1869.4" y2="457"/>
		<polyline class="st22" points="1782,481.5 1833.9,466.3 1869.4,466.3 		"/>
		<circle class="st25" cx="1782" cy="481.5" r="6.8"/>
	</g>
</g>
<g id="letter">
	<g>
		<path class="st25" d="M1643.9,302.2h-231.7c-2.3,0-4.2-1.9-4.2-4.2V147.7c0-2.3,1.9-4.2,4.2-4.2h231.7c2.3,0,4.2,1.9,4.2,4.2V298
			C1648.1,300.4,1646.2,302.2,1643.9,302.2z"/>
		<polyline class="st7" points="1414.5,150.7 1528.1,225.8 1641.7,150.7 		"/>
		<path class="st21" d="M1619.9,331.2h-231.7c-2.3,0-4.2-1.9-4.2-4.2V176.7c0-2.3,1.9-4.2,4.2-4.2h231.7c2.3,0,4.2,1.9,4.2,4.2V327
			C1624.1,329.4,1622.2,331.2,1619.9,331.2z"/>
		<polyline class="st7" points="1390.5,179.7 1504.1,254.8 1617.7,179.7 		"/>
		<path class="st17" d="M1594.9,361.6h-231.7c-2.3,0-4.2-1.9-4.2-4.2V207.1c0-2.3,1.9-4.2,4.2-4.2h231.7c2.3,0,4.2,1.9,4.2,4.2
			v150.3C1599.1,359.7,1597.2,361.6,1594.9,361.6z"/>
		<polyline class="st7" points="1365.5,210 1479.1,285.1 1592.7,210 		"/>
		<g>
			<line class="st26" x1="1365.5" y1="354.9" x2="1466.1" y2="285.1"/>
			<line class="st26" x1="1592.7" y1="354.9" x2="1492.1" y2="285.1"/>
		</g>
	</g>
</g>
<g id="computer">
	<g>
		<g>
			<path class="st27" d="M1512.1,346.2c9.4,0,17,7.6,17,17v278.5c0,9.4-7.6,17-17,17h-396.5c-9.4,0-17-7.6-17-17V363.2
				c0-9.4,7.6-17,17-17H1512.1 M1512.1,344.2h-396.5c-10.5,0-19,8.5-19,19v278.5c0,10.5,8.5,19,19,19h396.5c10.5,0,19-8.5,19-19
				V363.2C1531.1,352.7,1522.6,344.2,1512.1,344.2L1512.1,344.2z"/>
		</g>
		<path class="st20" d="M1530.1,660.7h-396.5c-10.5,0-19-8.5-19-19V363.2c0-10.5,8.5-19,19-19h396.5c10.5,0,19,8.5,19,19v278.5
			C1549.1,652.2,1540.6,660.7,1530.1,660.7z"/>
		<g>
			<g>
				<defs>
					<path id="SVGID_14_" d="M1530.1,660.7h-396.5c-10.5,0-19-8.5-19-19V363.2c0-10.5,8.5-19,19-19h396.5c10.5,0,19,8.5,19,19v278.5
						C1549.1,652.2,1540.6,660.7,1530.1,660.7z"/>
				</defs>
				<clipPath id="SVGID_15_">
					<use xlink:href="#SVGID_14_"  style="overflow:visible;"/>
				</clipPath>
				<g class="st28">
					
						<image style="overflow:visible;enable-background:new    ;" width="238" height="202" xlink:href="60D93D005CC63DB4.png"  transform="matrix(0.9955 0 0 0.9955 1205.8103 533.9535)">
					</image>
				</g>
			</g>
		</g>
		<g>
			<g>
				<defs>
					<path id="SVGID_16_" d="M1530.1,660.7h-396.5c-10.5,0-19-8.5-19-19V363.2c0-10.5,8.5-19,19-19h396.5c10.5,0,19,8.5,19,19v278.5
						C1549.1,652.2,1540.6,660.7,1530.1,660.7z"/>
				</defs>
				<clipPath id="SVGID_17_">
					<use xlink:href="#SVGID_16_"  style="overflow:visible;"/>
				</clipPath>
				<g class="st29">
					
						<image style="overflow:visible;enable-background:new    ;" width="399" height="472" xlink:href="60D93D005CC63DB1.png"  transform="matrix(0.9977 0 0 0.9977 1258.5696 192.6606)">
					</image>
				</g>
			</g>
		</g>
		<g>
			<polygon class="st0" points="1339.1,627.7 1307.2,581.7 1394.4,581.7 1427,627.7 			"/>
			<path class="st27" d="M1393.9,582.7l31.2,44h-85.4l-30.5-44H1393.9 M1394.9,580.7h-89.6l33.2,48h90.3L1394.9,580.7L1394.9,580.7z
				"/>
		</g>
		<g>
			<rect x="1339.6" y="629.7" class="st0" width="88.3" height="105"/>
			<path class="st27" d="M1426.9,630.7v103h-86.3v-103H1426.9 M1428.9,628.7h-90.3v107h90.3V628.7L1428.9,628.7z"/>
		</g>
		<g>
			<g>
				<line class="st6" x1="1357.7" y1="681.2" x2="1409.7" y2="681.2"/>
			</g>
			<g>
				<line class="st6" x1="1357.7" y1="689.2" x2="1409.7" y2="689.2"/>
			</g>
			<g>
				<line class="st6" x1="1357.7" y1="697.2" x2="1409.7" y2="697.2"/>
			</g>
			<g>
				<line class="st6" x1="1357.7" y1="657.2" x2="1409.7" y2="657.2"/>
			</g>
			<g>
				<line class="st6" x1="1357.7" y1="665.2" x2="1409.7" y2="665.2"/>
			</g>
			<g>
				<line class="st6" x1="1357.7" y1="673.2" x2="1409.7" y2="673.2"/>
			</g>
			<g>
				<line class="st6" x1="1357.7" y1="705.2" x2="1409.7" y2="705.2"/>
			</g>
			<g>
				<line class="st6" x1="1357.7" y1="713.2" x2="1409.7" y2="713.2"/>
			</g>
		</g>
		<g>
			<path class="st0" d="M1306.3,734.7c0.5-6.4,5.9-11.5,12.5-11.5h20.5v11.5H1306.3z"/>
			<path class="st27" d="M1338.3,724.2v9.5h-30.8c0.9-5.4,5.7-9.5,11.3-9.5H1338.3 M1340.3,722.2h-21.5c-7.5,0-13.5,6-13.5,13.5h35
				V722.2L1340.3,722.2z"/>
		</g>
		<g>
			<g>
				<line class="st6" x1="1367.1" y1="456.3" x2="1367.1" y2="508.3"/>
			</g>
			<g>
				<line class="st6" x1="1349.3" y1="456.3" x2="1349.3" y2="508.3"/>
			</g>
			<g>
				<line class="st6" x1="1331.4" y1="456.3" x2="1331.4" y2="508.3"/>
			</g>
		</g>
		<circle class="st6" cx="1484.6" cy="628.7" r="5.8"/>
		<circle class="st6" cx="1503.6" cy="628.7" r="5.8"/>
		<circle class="st6" cx="1463.4" cy="628.7" r="5.8"/>
		<g>
			<rect x="1306.3" y="569.2" class="st0" width="87.2" height="10.5"/>
			<path class="st27" d="M1392.6,570.2v8.5h-85.2v-8.5H1392.6 M1394.6,568.2h-89.2v12.5h89.2V568.2L1394.6,568.2z"/>
		</g>
	</g>
</g>
<g id="bulb">
	<g>
		<path class="st25" d="M465.6,550.7c-48.4-27-109.5-9.9-136.9,38.2c-27.6,48.5-10.2,110.9,38.6,138.1
			c33.2,18.5,72.4,16.3,102.5-2.5c5.5-3.4,12.5-3.5,18.2-0.3l-0.7-0.4l38.6-69.3l0.7,0.4c-5.7-3.2-9.3-9.2-9.3-15.8
			C517.5,603.7,498.8,569.2,465.6,550.7z"/>
		<path class="st30" d="M533.8,656.8L493.5,729c-1.1,1.9-3.5,2.6-5.5,1.6l-1.3-0.7c-1.9-1.1-2.6-3.5-1.6-5.5l40.3-72.2
			c1.1-1.9,3.5-2.6,5.5-1.6l1.3,0.7C534.2,652.4,534.9,654.9,533.8,656.8z"/>
		<path class="st20" d="M512.2,732.6c8.5,4.7,20.7-0.8,27.1-12.5l11.3-20.3c6.5-11.6,4.9-24.9-3.7-29.7L512.2,732.6z"/>
		<path class="st20" d="M541.2,663.1l-38.5,69c-1.1,1.9-3.5,2.6-5.5,1.6l-1.3-0.7c-1.9-1.1-2.6-3.5-1.6-5.5l38.5-69
			c1.1-1.9,3.5-2.6,5.5-1.6l1.3,0.7C541.6,658.7,542.3,661.1,541.2,663.1z"/>
		<path class="st30" d="M549.5,667.7l-38.5,69c-1.1,1.9-3.5,2.6-5.5,1.6l-1.3-0.7c-1.9-1.1-2.6-3.5-1.6-5.5l38.5-69
			c1.1-1.9,3.5-2.6,5.5-1.6l1.3,0.7C549.9,663.3,550.6,665.8,549.5,667.7z"/>
		
			<image style="overflow:visible;enable-background:new    ;" width="226" height="215" xlink:href="60D93D005CC63DB0.png"  transform="matrix(0.3233 1.1381 -1.1381 0.3233 496.1586 473.9141)">
		</image>
		<polyline class="st6" points="495.2,706.5 480.1,698.1 501.1,660.4 516.2,668.8 		"/>
		<polyline class="st6" points="487,685.7 391.6,655.9 385.2,648.8 399.5,653.1 397.5,662.4 		"/>
		<polyline class="st6" points="493.9,673.3 419.4,604 426.5,603 419,612.1 413.3,598.5 		"/>
		<polyline class="st6" points="421,665.1 419.1,657.7 426,655.5 424.1,648 431.7,645.6 429.8,638 437.1,635.7 435.2,627.8 
			443.2,625.2 		"/>
		<circle class="st31" cx="417.1" cy="639.7" r="60.1"/>
	</g>
	<path class="st6" d="M547,706.5l25.9,12c2.6,1.2,3.6,4.3,2.3,6.8l0,0c-1.3,2.4-4.2,3.4-6.7,2.2l-26.4-12.2"/>
</g>
<g id="woman">
	<path class="st27" d="M936.1,615.2c0,0,18,51.9,69.5,65.9s-80.5,14.1-80.5,14.1l-11-63.5L936.1,615.2z"/>
	<path class="st32" d="M1201.4,711.6c-3.3-6.4-26.4-22.4-69.8-25.8l0,0c-12.9,5.7-27.5,6.4-40.8,1.7l-8.6-0.9
		c-6.1-0.6-12.2-1-18.3-1l-56.3-0.4l78,41.5h36l14.9-12.7c1.8-1.9,4.6-2.3,6.9-1.2c6,3,12.5,4.9,19.3,4.9h41.9L1201.4,711.6z"/>
	<path class="st33" d="M942.8,373.8c-3.8,12-8.8,24-16.9,33.6c-8.1,9.6-19.9,16.8-32.5,17.1c-6.4,22.7-2.6,48.1,10.3,67.9
		c-12.7,12.4-31.6,16-49.3,15.9c-8.2,0-16.6-0.8-23.7-4.8c-11.7-6.6-17.1-20.5-19.5-33.7c-2.3-12.6-3.2-26.4-3.3-39.2
		c-0.2-14.1,3.6-26.9-0.6-41c-3.3-11-9.6-21.2-10.4-32.7c-0.7-9,2.1-18,5.4-26.4c2.7-6.8,5.9-13.7,11.5-18.5
		c5.2-4.5,11.9-6.7,18.6-8.3c16.4-4.1,35-5.4,51.8-7c18.1-1.7,36.7,2.1,52.7,10.7c10.9,5.9,19,10.2,17.3,22
		C951.9,343.7,947.2,359.9,942.8,373.8z"/>
	<path class="st34" d="M873.9,328.1c-10.3,6.9-23.5,14.8-22.2,27.1c0.3-11.6-11.1-22.3-22.5-20.5s-18.6,16.9-12.3,26.6
		c3.7,5.6,10.4,8.4,15.3,13c9.1,8.4,11.5,21.8,12.4,34.1c1.1,14.2,0.9,28.8-3.9,42.1c-4.9,13.4-15.1,25.4-28.8,29.2
		c-12.9,3.7-27-0.2-40,2.8c-21,4.9-34.5,30.1-27.1,50.4c-29.1,0.9-58.4-6.4-83.8-20.7c-11.9-6.7-23.1-15.1-31.3-26
		c-22-29.1-18.2-72.6,3.3-102c21.5-29.4,57.5-45.9,93.6-50.6c8.8-1.1,18-1.8,25.5-6.4c18-10.9,17.5-36.7,26.4-55.8
		c11.4-24.4,39.5-37.5,66.4-38.2s52.9,8.7,77.7,19c2.9-12.2,17.8-18.6,29.9-15.4c12.1,3.1,21.3,13.3,27.2,24.3
		c15.3,28.6,12.1,66.2-7.9,91.8c-7.2,9.2-17,17.2-28.6,18.4c2.2-7,4.3-14,6.5-20.9c-12,5.5-26.8,0-35.7-9.7
		c-5.2-5.7-10.7-27.7-16.1-30.2C893.1,308.1,879.1,324.6,873.9,328.1z"/>
	<g>
		<g>
			<defs>
				<path id="SVGID_18_" d="M873.9,328.1c-10.3,6.9-23.5,14.8-22.2,27.1c0.3-11.6-11.1-22.3-22.5-20.5s-18.6,16.9-12.3,26.6
					c3.7,5.6,10.4,8.4,15.3,13c9.1,8.4,11.5,21.8,12.4,34.1c1.1,14.2,0.9,28.8-3.9,42.1c-4.9,13.4-15.1,25.4-28.8,29.2
					c-12.9,3.7-27-0.2-40,2.8c-21,4.9-34.5,30.1-27.1,50.4c-29.1,0.9-58.4-6.4-83.8-20.7c-11.9-6.7-23.1-15.1-31.3-26
					c-22-29.1-18.2-72.6,3.3-102c21.5-29.4,57.5-45.9,93.6-50.6c8.8-1.1,18-1.8,25.5-6.4c18-10.9,17.5-36.7,26.4-55.8
					c11.4-24.4,39.5-37.5,66.4-38.2s52.9,8.7,77.7,19c2.9-12.2,17.8-18.6,29.9-15.4c12.1,3.1,21.3,13.3,27.2,24.3
					c15.3,28.6,12.1,66.2-7.9,91.8c-7.2,9.2-17,17.2-28.6,18.4c2.2-7,4.3-14,6.5-20.9c-12,5.5-26.8,0-35.7-9.7
					c-5.2-5.7-10.7-27.7-16.1-30.2C893.1,308.1,879.1,324.6,873.9,328.1z"/>
			</defs>
			<clipPath id="SVGID_19_">
				<use xlink:href="#SVGID_18_"  style="overflow:visible;"/>
			</clipPath>
			<g class="st35">
				
					<image style="overflow:visible;enable-background:new    ;" width="443" height="320" xlink:href="60D93D005CC63DAF.png"  transform="matrix(0.9974 0 0 0.9974 516.2997 268.5312)">
				</image>
			</g>
		</g>
	</g>
	<path class="st6" d="M887.6,393.7c0,0,8,7.3,15,8.7"/>
	<path class="st27" d="M811.9,479.8c0,0,58.6,26.1,87.6,5.5c0,0,23.8,73.1,40.8,96.4c4.6,6.4,5.9,14.6,3.5,22.1l-21.3,67.9
		c0,0,115,6,127,9v49h-353c0,0,71-59.8,48-160C719.6,460.7,795.2,473.6,811.9,479.8z"/>
	<path class="st33" d="M1165.4,714.6c-3.3-6.4-7.5-7.8-12.6-12.5c-15.4-14.3-38-17.6-57.2-9.1c0,0-27.6,2.2-40.9-2.4l-5.2-1.8v41
		h16.4c12.6,0,25.5,0.7,35.1-7.5l4-1.1c1.8-1.9,0,0,2.3,1.1c6,3,12.5-1.5,19.3-1.5h41.9L1165.4,714.6z"/>
	<path class="st7" d="M984,676.5c0,0-97.5-7.2-108.5-1.8c0,0-24.4-98.7-60-146"/>
	<g>
		<g>
			<defs>
				<path id="SVGID_20_" d="M984,676.5c0,0-97.5-7.2-108.5-1.8c0,0-24.4-98.7-60-146L779,516.6l-30,30.5l-16,53.5l70.1,114.1
					l39.1,9.8l104.3,2.2l57-9.5l11.5-19.6l-7.4-20.8L984,676.5z"/>
			</defs>
			<clipPath id="SVGID_21_">
				<use xlink:href="#SVGID_20_"  style="overflow:visible;"/>
			</clipPath>
			<g class="st36">
				
					<image style="overflow:visible;enable-background:new    ;" width="289" height="204" xlink:href="60D93D005CC63DCA.png"  transform="matrix(0.9961 0 0 0.9961 776.1287 517.4356)">
				</image>
			</g>
		</g>
	</g>
	<path class="st7" d="M753.9,596c0,0,30.3,110.2,76,129"/>
	<line class="st7" x1="922.6" y1="671.7" x2="938.5" y2="621"/>
	<path class="st27" d="M1287.6,729.7c0-8.3-5.3-15-14.8-15h-166.4c-5,0-9.7,1.7-13.5,4.6l0,0l-4.5,2.7c-4.6,2.8-9.5,4.9-14.7,6.5
		l-3.7,1.1L1287.6,729.7z"/>
	<rect x="1033.6" y="714.7" class="st27" width="238.7" height="15"/>
</g>
<g id="Details">
	<path class="st5" d="M368.1,167.6c-2.3,0-4.5,0.2-6.7,0.7c-1.7-8.3-7-15.4-14.6-19.2c-7.6-3.8-16.4-4-24.1-0.4
		c-7-19.2-28.1-29-47.3-22.1c-19.2,7-29,28.1-22.1,47.3c-16.8,0.5-30,14.4-29.8,31.2c0.3,16.8,13.9,30.3,30.7,30.3h113.9
		c18.7,0,33.9-15.2,33.9-33.9C402,182.8,386.8,167.6,368.1,167.6z"/>
	<g>
		<g>
			<path class="st37" d="M675.3,449.5c-65.4,2.1-101.7,100.1-223.8,67.3C306.4,477.8,319.2,320,319.2,320v-54.4"/>
			<g>
				<polygon class="st27" points="668.2,441.8 666.9,443.4 674.6,449.6 667.7,456.8 669.2,458.2 677.5,449.5 				"/>
			</g>
		</g>
	</g>
	<g>
		<line class="st22" x1="216.6" y1="444.9" x2="222.4" y2="413.4"/>
		<line class="st22" x1="205.2" y1="425.9" x2="233.8" y2="432.4"/>
	</g>
	<g>
		<line class="st22" x1="1362.1" y1="37.6" x2="1390.8" y2="23.5"/>
		<line class="st22" x1="1370.5" y1="17.1" x2="1382.5" y2="43.9"/>
	</g>
	<g>
		<line class="st22" x1="439.3" y1="26.4" x2="437.5" y2="9.7"/>
		<line class="st22" x1="430.7" y1="18.6" x2="446.1" y2="17.5"/>
	</g>
	<g>
		<line class="st22" x1="1848.1" y1="260.9" x2="1846.3" y2="244.2"/>
		<line class="st22" x1="1839.5" y1="253.1" x2="1854.9" y2="252"/>
	</g>
	<g>
		<line class="st22" x1="1150.3" y1="823.7" x2="1156.9" y2="808.2"/>
		<line class="st22" x1="1146.6" y1="812.7" x2="1160.6" y2="819.2"/>
	</g>
	<circle class="st22" cx="1788.7" cy="101.7" r="6.9"/>
	<circle class="st22" cx="260.6" cy="793.3" r="3.4"/>
	<circle class="st22" cx="1070.1" cy="21.5" r="3.4"/>
	<circle class="st22" cx="312.8" cy="12.4" r="6.9"/>
	<circle class="st22" cx="189.2" cy="166.1" r="6.9"/>
	<circle class="st22" cx="202.9" cy="767.1" r="6.9"/>
	<circle class="st22" cx="835.3" cy="731.3" r="6.9"/>
	<g>
		<path class="st22" d="M710.6,63.2l-16-18.1C699.1,51.8,704.4,57.9,710.6,63.2z"/>
	</g>
	<line class="st22" x1="696.6" y1="821.2" x2="708.6" y2="810.7"/>
	<line class="st22" x1="268.5" y1="661.7" x2="291.2" y2="684.4"/>
	<line class="st22" x1="1281.9" y1="174" x2="1293.2" y2="185.3"/>
	<line class="st22" x1="1730" y1="11.3" x2="1728.8" y2="27.3"/>
	<circle class="st6" cx="1653.8" cy="805.4" r="5.2"/>
	<g>
		<g>
			<g>
				<line class="st7" x1="315.8" y1="220.1" x2="315.8" y2="168.3"/>
				<g>
					<polygon class="st0" points="323.9,174.9 322.5,176.2 315.8,169 309,176.2 307.6,174.9 315.8,166.1 					"/>
				</g>
			</g>
		</g>
		<g>
			<g>
				<line class="st7" x1="338" y1="220.1" x2="338" y2="168.3"/>
				<g>
					<polygon class="st0" points="346.2,174.9 344.7,176.2 338,169 331.3,176.2 329.8,174.9 338,166.1 					"/>
				</g>
			</g>
		</g>
		<g>
			<g>
				<line class="st7" x1="293.5" y1="220.1" x2="293.5" y2="168.3"/>
				<g>
					<polygon class="st0" points="301.7,174.9 300.2,176.2 293.5,169 286.8,176.2 285.3,174.9 293.5,166.1 					"/>
				</g>
			</g>
		</g>
	</g>
	<path class="st6" d="M376.5,167.6c-2.3,0-4.5,0.2-6.7,0.7c-1.7-8.3-7-15.4-14.6-19.2c-7.6-3.8-16.4-4-24.1-0.4
		c-7-19.2-28.1-29-47.3-22.1c-19.2,7-29,28.1-22.1,47.3c-16.8,0.5-30,14.4-29.8,31.2c0.3,16.8,13.9,30.3,30.7,30.3h113.9
		c18.7,0,33.9-15.2,33.9-33.9C410.4,182.8,395.2,167.6,376.5,167.6z"/>
	<path class="st6" d="M1638.8,699.7c6-6,15.6-6,21.6,0l0.4,0.4c6,6,15.6,6,21.6,0l0,0c6-6,15.6-6,21.6,0l0,0c6,6,15.6,6,21.6,0
		l0.4-0.4c6-6,15.6-6,21.6,0"/>
</g>
</svg>
