<?xml version="1.0" encoding="utf-8"?>
<!-- Generator: Adobe Illustrator 23.0.3, SVG Export Plug-In . SVG Version: 6.00 Build 0)  -->
<svg version="1.1" xmlns="http://www.w3.org/2000/svg" xmlns:xlink="http://www.w3.org/1999/xlink" x="0px" y="0px"
	 viewBox="0 0 2000 1125" style="enable-background:new 0 0 2000 1125;" xml:space="preserve">
<style type="text/css">
	.st0{fill:#FFFFFF;}
	.st1{fill:url(#SVGID_1_);}
	.st2{fill:url(#SVGID_4_);}
	.st3{fill:#DAE4F4;}
	.st4{fill:none;stroke:#0A2A3C;stroke-width:1.8066;stroke-miterlimit:10;}
	.st5{fill:none;stroke:#FFFFFF;stroke-width:1.8066;stroke-miterlimit:10;}
	.st6{fill:url(#SVGID_7_);}
	.st7{opacity:0.5;fill:none;stroke:#FFFFFF;stroke-width:1.8066;stroke-miterlimit:10;}
	.st8{fill:url(#SVGID_8_);}
	.st9{fill:url(#SVGID_9_);}
	.st10{fill:url(#SVGID_10_);}
	.st11{fill:none;stroke:#36C2DB;stroke-width:1.8066;stroke-miterlimit:10;}
	.st12{opacity:0.5;fill:url(#SVGID_11_);}
	.st13{fill:#F26C5D;}
	.st14{opacity:0.5;fill:url(#SVGID_12_);}
	.st15{fill:#21B787;}
	.st16{opacity:0.5;fill:url(#SVGID_13_);}
	.st17{fill:#77CFE3;}
	.st18{fill:#B7E3F0;}
	.st19{fill:#FDC485;}
	.st20{fill:none;stroke:#072A3D;stroke-width:1.8066;stroke-miterlimit:10;}
	.st21{fill:#072A3D;}
	.st22{fill:none;stroke:#0A2A3C;stroke-width:1.8066;stroke-miterlimit:10;stroke-dasharray:9.0328;}
	.st23{fill:#FAAA4B;}
	.st24{opacity:0.5;}
	.st25{fill:none;stroke:#B7E3F0;stroke-width:1.8066;stroke-miterlimit:10;}
	.st26{fill:#0A2A3C;}
	.st27{fill:#36C2DB;}
	.st28{opacity:0.5;fill:#FDC485;}
	.st29{fill:#BD7361;}
	.st30{fill:#BB916F;}
	.st31{fill:#1C1F13;}
	.st32{fill:none;stroke:#0A2A3C;stroke-width:1.8066;stroke-miterlimit:10;stroke-dasharray:9.0328,9.0328;}
</style>
<g id="Background">
	<rect x="104.7" y="176.8" class="st0" width="1806.6" height="1016.2"/>
	
		<radialGradient id="SVGID_1_" cx="967.918" cy="963.5667" r="626.4875" gradientTransform="matrix(1 0 0 0.158 0 811.3436)" gradientUnits="userSpaceOnUse">
		<stop  offset="0" style="stop-color:#77CFE3"/>
		<stop  offset="0.1353" style="stop-color:#80D2E5;stop-opacity:0.8647"/>
		<stop  offset="0.3585" style="stop-color:#99DBEA;stop-opacity:0.6415"/>
		<stop  offset="0.642" style="stop-color:#C2E9F2;stop-opacity:0.358"/>
		<stop  offset="0.9718" style="stop-color:#FAFDFE;stop-opacity:2.819538e-02"/>
		<stop  offset="1" style="stop-color:#FFFFFF;stop-opacity:0"/>
	</radialGradient>
	<rect x="325.8" y="951" class="st1" width="1295" height="133.6"/>
	<g>
		<defs>
			<rect id="SVGID_2_" x="325.8" y="951" width="1295" height="133.6"/>
		</defs>
		<clipPath id="SVGID_3_">
			<use xlink:href="#SVGID_2_"  style="overflow:visible;"/>
		</clipPath>
		<g style="clip-path:url(#SVGID_3_);">
			
				<image style="overflow:visible;" width="1084" height="205" xlink:href="AF1A7B86AA3028B9.png"  transform="matrix(0.9033 0 0 0.9033 440.8103 886.0109)">
			</image>
		</g>
	</g>
	<linearGradient id="SVGID_4_" gradientUnits="userSpaceOnUse" x1="830.1257" y1="946.807" x2="830.1257" y2="395.2016">
		<stop  offset="0" style="stop-color:#FFFFFF;stop-opacity:0"/>
		<stop  offset="0.146" style="stop-color:#D9F0F7;stop-opacity:0.4252"/>
		<stop  offset="0.2688" style="stop-color:#C0E7F2;stop-opacity:0.783"/>
		<stop  offset="0.3432" style="stop-color:#B7E3F0"/>
		<stop  offset="1" style="stop-color:#77CFE3"/>
	</linearGradient>
	<rect x="453" y="395.2" class="st2" width="754.2" height="551.6"/>
	<g>
		<defs>
			<rect id="SVGID_5_" x="453" y="395.2" width="754.2" height="551.6"/>
		</defs>
		<clipPath id="SVGID_6_">
			<use xlink:href="#SVGID_5_"  style="overflow:visible;"/>
		</clipPath>
		<g style="clip-path:url(#SVGID_6_);">
			
				<image style="overflow:visible;" width="626" height="345" xlink:href="AF1A7B86AA3028BB.png"  transform="matrix(0.9033 0 0 0.9033 747.9269 346.2051)">
			</image>
		</g>
	</g>
	<g>
		<rect x="507.8" y="483.2" class="st3" width="137.3" height="137.3"/>
		<g>
			<line class="st4" x1="529.2" y1="599" x2="623.6" y2="504.7"/>
			<line class="st4" x1="529.2" y1="504.7" x2="623.6" y2="599"/>
		</g>
		<rect x="516" y="491.4" class="st5" width="120.8" height="120.8"/>
	</g>
	<g>
		<linearGradient id="SVGID_7_" gradientUnits="userSpaceOnUse" x1="576.4158" y1="751.4756" x2="576.4158" y2="858.7235">
			<stop  offset="0" style="stop-color:#DAE4F4"/>
			<stop  offset="0.3557" style="stop-color:#E3EBF7;stop-opacity:0.6443"/>
			<stop  offset="0.9409" style="stop-color:#FCFDFE;stop-opacity:5.912524e-02"/>
			<stop  offset="1" style="stop-color:#FFFFFF;stop-opacity:0"/>
		</linearGradient>
		<rect x="507.8" y="742.1" class="st6" width="137.3" height="137.3"/>
		<rect x="516" y="750.4" class="st7" width="120.8" height="120.8"/>
	</g>
	<g>
		<linearGradient id="SVGID_8_" gradientUnits="userSpaceOnUse" x1="749.8463" y1="751.4756" x2="749.8463" y2="858.7235">
			<stop  offset="0" style="stop-color:#DAE4F4"/>
			<stop  offset="0.3557" style="stop-color:#E3EBF7;stop-opacity:0.6443"/>
			<stop  offset="0.9409" style="stop-color:#FCFDFE;stop-opacity:5.912524e-02"/>
			<stop  offset="1" style="stop-color:#FFFFFF;stop-opacity:0"/>
		</linearGradient>
		<rect x="681.2" y="742.1" class="st8" width="137.3" height="137.3"/>
		<rect x="689.4" y="750.4" class="st7" width="120.8" height="120.8"/>
	</g>
	<g>
		<linearGradient id="SVGID_9_" gradientUnits="userSpaceOnUse" x1="925.8738" y1="751.4756" x2="925.8738" y2="858.7235">
			<stop  offset="0" style="stop-color:#DAE4F4"/>
			<stop  offset="0.3557" style="stop-color:#E3EBF7;stop-opacity:0.6443"/>
			<stop  offset="0.9409" style="stop-color:#FCFDFE;stop-opacity:5.912524e-02"/>
			<stop  offset="1" style="stop-color:#FFFFFF;stop-opacity:0"/>
		</linearGradient>
		<rect x="857.2" y="742.1" class="st9" width="137.3" height="137.3"/>
		<rect x="865.5" y="750.4" class="st7" width="120.8" height="120.8"/>
	</g>
	<g>
		<linearGradient id="SVGID_10_" gradientUnits="userSpaceOnUse" x1="1099.3043" y1="751.4756" x2="1099.3043" y2="858.7235">
			<stop  offset="0" style="stop-color:#DAE4F4"/>
			<stop  offset="0.3557" style="stop-color:#E3EBF7;stop-opacity:0.6443"/>
			<stop  offset="0.9409" style="stop-color:#FCFDFE;stop-opacity:5.912524e-02"/>
			<stop  offset="1" style="stop-color:#FFFFFF;stop-opacity:0"/>
		</linearGradient>
		<rect x="1030.7" y="742.1" class="st10" width="137.3" height="137.3"/>
		<rect x="1038.9" y="750.4" class="st7" width="120.8" height="120.8"/>
	</g>
	<g>
		<rect x="681.2" y="483.2" class="st3" width="137.3" height="137.3"/>
		<g>
			<line class="st4" x1="702.6" y1="599" x2="797" y2="504.7"/>
			<line class="st4" x1="702.6" y1="504.7" x2="797" y2="599"/>
		</g>
		<rect x="689.4" y="491.4" class="st5" width="120.8" height="120.8"/>
	</g>
	<g>
		<rect x="857.2" y="483.2" class="st3" width="137.3" height="137.3"/>
		<rect x="865.5" y="491.4" class="st5" width="120.8" height="120.8"/>
	</g>
	<g>
		<rect x="1030.7" y="483.2" class="st3" width="137.3" height="137.3"/>
		<g>
			<line class="st11" x1="1052.1" y1="599" x2="1146.5" y2="504.7"/>
			<line class="st11" x1="1052.1" y1="504.7" x2="1146.5" y2="599"/>
		</g>
		<rect x="1038.9" y="491.4" class="st5" width="120.8" height="120.8"/>
	</g>
	<rect x="516" y="629.9" class="st3" width="108.3" height="8"/>
	<rect x="516" y="643.8" class="st3" width="85.1" height="8"/>
	<rect x="516" y="657.6" class="st3" width="100.2" height="8"/>
	<rect x="516" y="671.5" class="st3" width="120.8" height="8"/>
	<path class="st3" d="M627.5,724.9H525.4c-9.7,0-17.6-7.9-17.6-17.6v0c0-9.7,7.9-17.6,17.6-17.6h102.1c9.7,0,17.6,7.9,17.6,17.6v0
		C645.1,717,637.2,724.9,627.5,724.9z"/>
	<g>
		<linearGradient id="SVGID_11_" gradientUnits="userSpaceOnUse" x1="525.2674" y1="707.2862" x2="622.2198" y2="707.2862">
			<stop  offset="0" style="stop-color:#F26C5D"/>
			<stop  offset="0.1188" style="stop-color:#F37466;stop-opacity:0.8812"/>
			<stop  offset="0.315" style="stop-color:#F58B7F;stop-opacity:0.685"/>
			<stop  offset="0.5641" style="stop-color:#F8B0A8;stop-opacity:0.4359"/>
			<stop  offset="0.8535" style="stop-color:#FDE3E0;stop-opacity:0.1465"/>
			<stop  offset="1" style="stop-color:#FFFFFF;stop-opacity:0"/>
		</linearGradient>
		<rect x="525.3" y="694.6" class="st12" width="97" height="25.3"/>
		<circle class="st13" cx="525.3" cy="707.3" r="12.6"/>
	</g>
	<rect x="877.7" y="629.9" class="st3" width="108.3" height="8"/>
	<rect x="877.7" y="643.8" class="st3" width="85.1" height="8"/>
	<rect x="877.7" y="657.6" class="st3" width="100.2" height="8"/>
	<rect x="877.7" y="671.5" class="st3" width="120.8" height="8"/>
	<path class="st3" d="M989.1,724.9H887c-9.7,0-17.6-7.9-17.6-17.6v0c0-9.7,7.9-17.6,17.6-17.6h102.1c9.7,0,17.6,7.9,17.6,17.6v0
		C1006.7,717,998.8,724.9,989.1,724.9z"/>
	<g>
		
			<linearGradient id="SVGID_12_" gradientUnits="userSpaceOnUse" x1="839.3898" y1="440.0471" x2="936.3422" y2="440.0471" gradientTransform="matrix(-1 0 0 -1 1828.0834 1147.3334)">
			<stop  offset="0.1054" style="stop-color:#21B787"/>
			<stop  offset="1" style="stop-color:#FFFFFF;stop-opacity:0"/>
		</linearGradient>
		<polygon class="st14" points="891.7,694.6 988.7,694.6 988.7,719.9 891.7,719.9 		"/>
		<circle class="st15" cx="988.7" cy="707.3" r="12.6"/>
	</g>
	<rect x="1043.4" y="629.9" class="st3" width="108.3" height="8"/>
	<rect x="1043.4" y="643.8" class="st3" width="85.1" height="8"/>
	<rect x="1043.4" y="657.6" class="st3" width="100.2" height="8"/>
	<rect x="1043.4" y="671.5" class="st3" width="120.8" height="8"/>
	<path class="st3" d="M1154.9,724.9h-102.1c-9.7,0-17.6-7.9-17.6-17.6v0c0-9.7,7.9-17.6,17.6-17.6h102.1c9.7,0,17.6,7.9,17.6,17.6v0
		C1172.5,717,1164.6,724.9,1154.9,724.9z"/>
	<g>
		
			<linearGradient id="SVGID_13_" gradientUnits="userSpaceOnUse" x1="673.6371" y1="440.0471" x2="770.5896" y2="440.0471" gradientTransform="matrix(-1 0 0 -1 1828.0834 1147.3334)">
			<stop  offset="0.1054" style="stop-color:#21B787"/>
			<stop  offset="1" style="stop-color:#FFFFFF;stop-opacity:0"/>
		</linearGradient>
		<polygon class="st16" points="1057.5,694.6 1154.4,694.6 1154.4,719.9 1057.5,719.9 		"/>
		<circle class="st15" cx="1154.4" cy="707.3" r="12.6"/>
	</g>
	<line class="st5" x1="474.7" y1="431.7" x2="1184.7" y2="431.7"/>
	<g>
		<path class="st0" d="M484.2,406.3c4.2,0,7.7,3.4,7.7,7.7c0,4.2-3.4,7.7-7.7,7.7c-4.2,0-7.7-3.4-7.7-7.7
			C476.5,409.8,479.9,406.3,484.2,406.3 M484.2,404.5c-5.2,0-9.5,4.2-9.5,9.5s4.2,9.5,9.5,9.5s9.5-4.2,9.5-9.5
			S489.4,404.5,484.2,404.5L484.2,404.5z"/>
	</g>
	<circle class="st3" cx="510.2" cy="414" r="9.5"/>
	
		<image style="overflow:visible;opacity:0.5;" width="882" height="635" xlink:href="AF1A7B86AA3028BE.png"  transform="matrix(0.9033 0 0 0.9033 1072.8488 354.473)">
	</image>
	
		<image style="overflow:visible;" width="888" height="481" xlink:href="AF1A7B86AA3028BF.png"  transform="matrix(0.9033 0 0 0.9033 143.5919 620.8721)">
	</image>
</g>
<g id="chart">
	<g>
		<g>
			<rect x="1539" y="733.2" class="st17" width="32.7" height="99.8"/>
			<rect x="1586.6" y="707.9" class="st3" width="32.7" height="125.1"/>
			<rect x="1634.2" y="696.3" class="st18" width="32.7" height="136.7"/>
			<rect x="1681.8" y="635.9" class="st19" width="32.7" height="197.1"/>
		</g>
		<g>
			<g>
				<line class="st20" x1="1529.8" y1="749" x2="1704.7" y2="609.3"/>
				<g>
					<polygon class="st21" points="1704.7,618.9 1702.9,618.6 1704.2,609.8 1695.3,609.1 1695.4,607.3 1706.3,608.1 					"/>
				</g>
			</g>
		</g>
		<polyline class="st22" points="1529.8,757.9 1529.8,841.7 1753.2,841.7 		"/>
		<circle class="st20" cx="1714.4" cy="726.8" r="18.9"/>
		<line class="st20" x1="1761.2" y1="687.9" x2="1793.3" y2="687.9"/>
		<line class="st20" x1="1761.2" y1="696.3" x2="1793.3" y2="696.3"/>
		<line class="st20" x1="1761.2" y1="704.7" x2="1793.3" y2="704.7"/>
		<polyline class="st20" points="1714.4,726.8 1761.2,713.1 1793.3,713.1 		"/>
		<circle class="st23" cx="1714.4" cy="726.8" r="6.2"/>
	</g>
</g>
<g id="letter">
	<g>
		<path class="st23" d="M1589.7,564.9h-209.3c-2.1,0-3.8-1.7-3.8-3.8V425.3c0-2.1,1.7-3.8,3.8-3.8h209.3c2.1,0,3.8,1.7,3.8,3.8
			v135.8C1593.4,563.2,1591.7,564.9,1589.7,564.9z"/>
		<polyline class="st5" points="1382.4,428 1485,495.8 1587.6,428 		"/>
		<path class="st19" d="M1568,591.1h-209.3c-2.1,0-3.8-1.7-3.8-3.8V451.5c0-2.1,1.7-3.8,3.8-3.8H1568c2.1,0,3.8,1.7,3.8,3.8v135.8
			C1571.7,589.4,1570.1,591.1,1568,591.1z"/>
		<g class="st24">
			<defs>
				<path id="SVGID_14_" class="st24" d="M1568,593.7h-209.3c-2.1,0-3.8-1.7-3.8-3.8V454.1c0-2.1,1.7-3.8,3.8-3.8H1568
					c2.1,0,3.8,1.7,3.8,3.8v135.8C1571.7,592,1570.1,593.7,1568,593.7z"/>
			</defs>
			<clipPath id="SVGID_15_">
				<use xlink:href="#SVGID_14_"  style="overflow:visible;"/>
			</clipPath>
		</g>
		<polyline class="st5" points="1360.7,454.2 1463.4,522 1566,454.2 		"/>
		<path class="st15" d="M1545.4,618.5h-209.3c-2.1,0-3.8-1.7-3.8-3.8V478.9c0-2.1,1.7-3.8,3.8-3.8h209.3c2.1,0,3.8,1.7,3.8,3.8
			v135.8C1549.2,616.8,1547.5,618.5,1545.4,618.5z"/>
		<polyline class="st5" points="1338.2,481.6 1440.8,549.4 1543.4,481.6 		"/>
		<g>
			<line class="st25" x1="1338.2" y1="612.4" x2="1429" y2="549.4"/>
			<line class="st25" x1="1543.4" y1="612.4" x2="1452.5" y2="549.4"/>
		</g>
	</g>
</g>
<g id="computer">
	<g>
		<g>
			<path class="st26" d="M1470.6,604.6c8.5,0,15.4,6.9,15.4,15.4v251.6c0,8.5-6.9,15.4-15.4,15.4h-358.2c-8.5,0-15.4-6.9-15.4-15.4
				V620c0-8.5,6.9-15.4,15.4-15.4H1470.6 M1470.6,602.8h-358.2c-9.5,0-17.2,7.7-17.2,17.2v251.6c0,9.5,7.7,17.2,17.2,17.2h358.2
				c9.5,0,17.2-7.7,17.2-17.2V620C1487.7,610.5,1480,602.8,1470.6,602.8L1470.6,602.8z"/>
		</g>
		<path class="st18" d="M1486.8,888.7h-358.2c-9.5,0-17.2-7.7-17.2-17.2V620c0-9.5,7.7-17.2,17.2-17.2h358.2
			c9.5,0,17.2,7.7,17.2,17.2v251.6C1504,881,1496.3,888.7,1486.8,888.7z"/>
		<g>
			<defs>
				<path id="SVGID_16_" d="M1486.8,888.7h-358.2c-9.5,0-17.2-7.7-17.2-17.2V620c0-9.5,7.7-17.2,17.2-17.2h358.2
					c9.5,0,17.2,7.7,17.2,17.2v251.6C1504,881,1496.3,888.7,1486.8,888.7z"/>
			</defs>
			<clipPath id="SVGID_17_">
				<use xlink:href="#SVGID_16_"  style="overflow:visible;"/>
			</clipPath>
			<g style="clip-path:url(#SVGID_17_);">
				
					<image style="overflow:visible;" width="237" height="201" xlink:href="AF1A7B86AA3028BA.png"  transform="matrix(0.9033 0 0 0.9033 1193.8904 774.2045)">
				</image>
			</g>
		</g>
		<g>
			<defs>
				<path id="SVGID_18_" d="M1486.8,888.7h-358.2c-9.5,0-17.2-7.7-17.2-17.2V620c0-9.5,7.7-17.2,17.2-17.2h358.2
					c9.5,0,17.2,7.7,17.2,17.2v251.6C1504,881,1496.3,888.7,1486.8,888.7z"/>
			</defs>
			<clipPath id="SVGID_19_">
				<use xlink:href="#SVGID_18_"  style="overflow:visible;"/>
			</clipPath>
			<g transform="matrix(1 0 0 1 0 3.051758e-05)" style="clip-path:url(#SVGID_19_);">
				
					<image style="overflow:visible;" width="398" height="471" xlink:href="AF1A7B86AA3028B5.png"  transform="matrix(0.9033 0 0 0.9033 1241.6215 465.8459)">
				</image>
			</g>
		</g>
		<g>
			<polygon class="st0" points="1314.3,858.9 1285.5,817.3 1364.3,817.3 1393.7,858.9 			"/>
			<path class="st26" d="M1363.8,818.2l28.2,39.7h-77.2l-27.5-39.7H1363.8 M1364.7,816.4h-80.9l30,43.4h81.6L1364.7,816.4
				L1364.7,816.4z"/>
		</g>
		<g>
			<rect x="1314.7" y="860.7" class="st0" width="79.8" height="94.8"/>
			<path class="st26" d="M1393.6,861.6v93h-78v-93H1393.6 M1395.4,859.8h-81.6v96.7h81.6V859.8L1395.4,859.8z"/>
		</g>
		<g>
			<g>
				<line class="st4" x1="1331.1" y1="907.2" x2="1378.1" y2="907.2"/>
			</g>
			<g>
				<line class="st4" x1="1331.1" y1="914.4" x2="1378.1" y2="914.4"/>
			</g>
			<g>
				<line class="st4" x1="1331.1" y1="921.7" x2="1378.1" y2="921.7"/>
			</g>
			<g>
				<line class="st4" x1="1331.1" y1="885.5" x2="1378.1" y2="885.5"/>
			</g>
			<g>
				<line class="st4" x1="1331.1" y1="892.8" x2="1378.1" y2="892.8"/>
			</g>
			<g>
				<line class="st4" x1="1331.1" y1="900" x2="1378.1" y2="900"/>
			</g>
			<g>
				<line class="st4" x1="1331.1" y1="928.9" x2="1378.1" y2="928.9"/>
			</g>
			<g>
				<line class="st4" x1="1331.1" y1="936.1" x2="1378.1" y2="936.1"/>
			</g>
		</g>
		<g>
			<path class="st0" d="M1284.7,955.5c0.5-5.8,5.3-10.4,11.3-10.4h18.5v10.4H1284.7z"/>
			<path class="st26" d="M1313.6,946v8.6h-27.8c0.9-4.9,5.1-8.6,10.2-8.6H1313.6 M1315.4,944.2H1296c-6.7,0-12.2,5.5-12.2,12.2h31.6
				V944.2L1315.4,944.2z"/>
		</g>
		<g>
			<g>
				<line class="st4" x1="1339.6" y1="704.1" x2="1339.6" y2="751"/>
			</g>
			<g>
				<line class="st4" x1="1323.5" y1="704.1" x2="1323.5" y2="751"/>
			</g>
			<g>
				<line class="st4" x1="1307.4" y1="704.1" x2="1307.4" y2="751"/>
			</g>
		</g>
		<circle class="st4" cx="1445.7" cy="859.8" r="5.2"/>
		<circle class="st4" cx="1462.9" cy="859.8" r="5.2"/>
		<circle class="st4" cx="1426.6" cy="859.8" r="5.2"/>
		<g>
			<rect x="1284.7" y="806" class="st0" width="78.8" height="9.5"/>
			<path class="st26" d="M1362.6,806.9v7.7h-77v-7.7H1362.6 M1364.4,805.1h-80.6v11.3h80.6V805.1L1364.4,805.1z"/>
		</g>
	</g>
</g>
<g id="bulb">
	<g>
		<path class="st23" d="M525.3,789.4c-43.7-24.4-98.9-8.9-123.6,34.5c-24.9,43.8-9.2,100.2,34.8,124.7c30,16.7,65.4,14.7,92.6-2.2
			c5-3.1,11.3-3.2,16.5-0.3l-0.6-0.3l34.9-62.6l0.6,0.3c-5.2-2.9-8.4-8.3-8.4-14.2C572.2,837.2,555.3,806.1,525.3,789.4z"/>
		<path class="st27" d="M586.9,885.2l-36.4,65.2c-1,1.8-3.2,2.4-4.9,1.4l-1.2-0.6c-1.8-1-2.4-3.2-1.4-4.9l36.4-65.2
			c1-1.8,3.2-2.4,4.9-1.4l1.2,0.6C587.3,881.2,587.9,883.4,586.9,885.2z"/>
		<path class="st18" d="M567.4,953.6c7.7,4.3,18.7-0.8,24.5-11.3l10.2-18.3c5.9-10.5,4.4-22.5-3.3-26.8L567.4,953.6z"/>
		<path class="st18" d="M593.6,890.8l-34.7,62.3c-1,1.8-3.2,2.4-4.9,1.4l-1.2-0.6c-1.8-1-2.4-3.2-1.4-4.9l34.7-62.3
			c1-1.8,3.2-2.4,4.9-1.4l1.2,0.6C594,886.9,594.6,889.1,593.6,890.8z"/>
		<path class="st27" d="M601.1,895l-34.7,62.3c-1,1.8-3.2,2.4-4.9,1.4l-1.2-0.6c-1.8-1-2.4-3.2-1.4-4.9l34.7-62.3
			c1-1.8,3.2-2.4,4.9-1.4l1.2,0.6C601.5,891,602.1,893.3,601.1,895z"/>
		
			<image style="overflow:visible;" width="226" height="215" xlink:href="AF1A7B86AA3028B6.png"  transform="matrix(0.2921 1.028 -1.028 0.2921 552.907 719.9322)">
		</image>
		<polyline class="st4" points="552.1,930 538.4,922.4 557.4,888.4 571,896 		"/>
		<polyline class="st4" points="544.6,911.2 458.5,884.4 452.7,877.9 465.6,881.8 463.8,890.2 		"/>
		<polyline class="st4" points="550.9,900 483.6,837.5 490,836.6 483.2,844.8 478,832.5 		"/>
		<polyline class="st4" points="485,892.6 483.3,886 489.5,884 487.9,877.2 494.7,875 493,868.2 499.6,866.1 497.8,859 505.1,856.6 
					"/>
		<circle class="st28" cx="481.5" cy="869.7" r="54.3"/>
	</g>
	<path class="st4" d="M598.8,930l23.4,10.9c2.3,1.1,3.3,3.9,2.1,6.2l0,0c-1.1,2.2-3.8,3.1-6,2l-23.9-11"/>
</g>
<g id="woman">
	<path class="st26" d="M950.3,847.6c0,0,16.3,46.9,62.8,59.6s-72.7,12.7-72.7,12.7l-9.9-57.4L950.3,847.6z"/>
	<path class="st29" d="M1190,934.7c-3-5.8-23.8-20.3-63.1-23.3v0c-11.7,5.2-24.8,5.7-36.9,1.6l-7.8-0.8c-5.5-0.6-11-0.9-16.5-0.9
		l-50.9-0.3l70.5,37.5h32.5l13.5-11.5c1.6-1.7,4.2-2.1,6.3-1.1c5.5,2.7,11.3,4.4,17.4,4.4h37.8L1190,934.7z"/>
	<path class="st30" d="M956.3,629.5c-3.5,10.9-7.9,21.6-15.3,30.4c-7.3,8.7-18,15.2-29.4,15.4c-5.8,20.5-2.3,43.5,9.3,61.4
		c-11.5,11.2-28.5,14.4-44.6,14.4c-7.4,0-15-0.7-21.5-4.3c-10.5-6-15.5-18.5-17.6-30.4c-2.1-11.4-2.9-23.8-3-35.4
		c-0.2-12.8,3.2-24.3-0.5-37c-2.9-9.9-8.6-19.2-9.4-29.5c-0.6-8.2,1.9-16.2,4.9-23.8c2.4-6.2,5.4-12.4,10.4-16.7
		c4.7-4,10.8-6,16.8-7.5c14.9-3.7,31.6-4.9,46.8-6.3c16.3-1.5,33.1,1.9,47.6,9.7c9.8,5.3,17.1,9.2,15.6,19.9
		C964.6,602.4,960.3,617,956.3,629.5z"/>
	<path class="st31" d="M894.1,588.3c-9.3,6.2-21.2,13.4-20.1,24.5c0.3-10.5-10-20.2-20.3-18.5s-16.8,15.3-11.1,24
		c3.4,5.1,9.4,7.6,13.9,11.7c8.2,7.6,10.3,19.6,11.2,30.8c1,12.8,0.8,26-3.5,38c-4.4,12.1-13.7,22.9-26,26.4
		c-11.7,3.3-24.4-0.2-36.2,2.6c-18.9,4.5-31.2,27.2-24.5,45.5c-26.3,0.8-52.8-5.8-75.7-18.7c-10.8-6.1-20.9-13.7-28.3-23.5
		c-19.8-26.3-16.4-65.6,3-92.2c19.4-26.6,51.9-41.4,84.6-45.7c7.9-1,16.2-1.6,23.1-5.8c16.3-9.9,15.8-33.2,23.9-50.4
		c10.3-22,35.7-33.8,59.9-34.5s47.8,7.9,70.2,17.1c2.6-11,16.1-16.8,27-13.9s19.2,12,24.5,22c13.9,25.9,10.9,59.8-7.1,82.9
		c-6.5,8.3-15.4,15.5-25.9,16.6c2-6.3,3.9-12.6,5.9-18.9c-10.8,5-24.2,0-32.2-8.8c-4.7-5.1-9.7-25-14.6-27.3
		C911.4,570.2,898.8,585.1,894.1,588.3z"/>
	<g>
		<defs>
			<path id="SVGID_20_" d="M894.1,588.3c-9.3,6.2-21.2,13.4-20.1,24.5c0.3-10.5-10-20.2-20.3-18.5s-16.8,15.3-11.1,24
				c3.4,5.1,9.4,7.6,13.9,11.7c8.2,7.6,10.3,19.6,11.2,30.8c1,12.8,0.8,26-3.5,38c-4.4,12.1-13.7,22.9-26,26.4
				c-11.7,3.3-24.4-0.2-36.2,2.6c-18.9,4.5-31.2,27.2-24.5,45.5c-26.3,0.8-52.8-5.8-75.7-18.7c-10.8-6.1-20.9-13.7-28.3-23.5
				c-19.8-26.3-16.4-65.6,3-92.2c19.4-26.6,51.9-41.4,84.6-45.7c7.9-1,16.2-1.6,23.1-5.8c16.3-9.9,15.8-33.2,23.9-50.4
				c10.3-22,35.7-33.8,59.9-34.5s47.8,7.9,70.2,17.1c2.6-11,16.1-16.8,27-13.9s19.2,12,24.5,22c13.9,25.9,10.9,59.8-7.1,82.9
				c-6.5,8.3-15.4,15.5-25.9,16.6c2-6.3,3.9-12.6,5.9-18.9c-10.8,5-24.2,0-32.2-8.8c-4.7-5.1-9.7-25-14.6-27.3
				C911.4,570.2,898.8,585.1,894.1,588.3z"/>
		</defs>
		<clipPath id="SVGID_21_">
			<use xlink:href="#SVGID_20_"  style="overflow:visible;"/>
		</clipPath>
		<g style="clip-path:url(#SVGID_21_);">
			
				<image style="overflow:visible;" width="442" height="319" xlink:href="AF1A7B86AA3028B7.png"  transform="matrix(0.9033 0 0 0.9033 571.0408 534.4955)">
			</image>
		</g>
	</g>
	<path class="st4" d="M906.5,647.5c0,0,7.2,6.6,13.5,7.8"/>
	<path class="st26" d="M838.1,725.2c0,0,52.9,23.5,79.1,5c0,0,21.5,66,36.9,87.1c4.2,5.8,5.3,13.2,3.2,20l-19.2,61.3
		c0,0,103.9,5.4,114.7,8.1V951H733.9c0,0,64.1-54,43.4-144.5C754.7,708,823.1,719.7,838.1,725.2z"/>
	<path class="st30" d="M1157.5,937.4c-3-5.8-6.8-7.1-11.3-11.3c-13.9-12.9-34.3-15.9-51.6-8.2c0,0-24.9,2-37-2.2l-4.7-1.6v37h14.8
		c11.4,0,23,0.6,31.7-6.8l3.6-1c1.6-1.7,0,0,2.1,1c5.5,2.7,11.3-1.4,17.4-1.4h37.8L1157.5,937.4z"/>
	<path class="st5" d="M993.6,903c0,0-88.1-6.5-98-1.7c0,0-22-89.2-54.2-131.9"/>
	<g>
		<defs>
			<path id="SVGID_22_" d="M993.6,903c0,0-88.1-6.5-98-1.7c0,0-22-89.2-54.2-131.9l-33-10.9l-27.1,27.6l-14.5,48.3l63.3,103.1
				l35.4,8.8l94.2,2l51.5-8.5l10.4-17.8l-6.7-18.8L993.6,903z"/>
		</defs>
		<clipPath id="SVGID_23_">
			<use xlink:href="#SVGID_22_"  style="overflow:visible;"/>
		</clipPath>
		<g style="clip-path:url(#SVGID_23_);">
			
				<image style="overflow:visible;" width="288" height="203" xlink:href="AF1A7B86AA3028C9.png"  transform="matrix(0.9033 0 0 0.9033 805.7371 759.3331)">
			</image>
		</g>
	</g>
	<path class="st5" d="M785.7,830.3c0,0,27.4,99.5,68.6,116.5"/>
	<line class="st5" x1="938.1" y1="898.6" x2="952.4" y2="852.8"/>
	<path class="st26" d="M1267.8,951c0-7.5-4.8-13.5-13.4-13.5h-150.3c-4.5,0-8.8,1.5-12.2,4.2l0,0l-4.1,2.5
		c-4.2,2.5-8.6,4.5-13.3,5.8l-3.3,1L1267.8,951z"/>
	<rect x="1038.3" y="937.5" class="st26" width="215.6" height="13.5"/>
</g>
<g id="Details">
	<path class="st3" d="M437.3,443.3c-2,0-4.1,0.2-6.1,0.6c-1.5-7.5-6.4-13.9-13.2-17.4c-6.8-3.5-14.9-3.6-21.8-0.4
		c-6.3-17.3-25.4-26.2-42.7-20c-17.3,6.3-26.2,25.4-20,42.7c-15.2,0.5-27.1,13-26.9,28.2c0.2,15.2,12.6,27.3,27.7,27.4h102.9
		c16.9,0,30.6-13.7,30.6-30.6C467.9,457,454.2,443.3,437.3,443.3z"/>
	<g>
		<g>
			<path class="st32" d="M714.7,697.9c-59.1,1.9-91.9,90.4-202.2,60.8C381.4,723.5,393,581,393,581v-49.2"/>
			<g>
				<polygon class="st26" points="708.3,691 707.2,692.4 714,698 707.9,704.5 709.2,705.7 716.7,697.9 				"/>
			</g>
		</g>
	</g>
	<g>
		<line class="st20" x1="300.4" y1="693.7" x2="305.7" y2="665.3"/>
		<line class="st20" x1="290.1" y1="676.6" x2="316" y2="682.4"/>
	</g>
	<g>
		<line class="st20" x1="1335.1" y1="325.8" x2="1361" y2="313.1"/>
		<line class="st20" x1="1342.7" y1="307.4" x2="1353.5" y2="331.5"/>
	</g>
	<g>
		<line class="st20" x1="501.6" y1="315.7" x2="499.9" y2="300.6"/>
		<line class="st20" x1="493.8" y1="308.7" x2="507.7" y2="307.7"/>
	</g>
	<g>
		<line class="st20" x1="1774.1" y1="527.6" x2="1772.5" y2="512.4"/>
		<line class="st20" x1="1766.3" y1="520.5" x2="1780.2" y2="519.5"/>
	</g>
	<g>
		<line class="st20" x1="1143.8" y1="1035.9" x2="1149.7" y2="1021.9"/>
		<line class="st20" x1="1140.4" y1="1026" x2="1153.1" y2="1031.9"/>
	</g>
	<circle class="st20" cx="1720.4" cy="383.7" r="6.2"/>
	<circle class="st20" cx="340.1" cy="1008.4" r="3.1"/>
	<circle class="st20" cx="1071.3" cy="311.3" r="3.1"/>
	<circle class="st20" cx="387.3" cy="303.1" r="6.2"/>
	<circle class="st20" cx="275.7" cy="441.9" r="6.2"/>
	<circle class="st20" cx="288" cy="984.8" r="6.2"/>
	<circle class="st20" cx="859.3" cy="952.5" r="6.2"/>
	<g>
		<path class="st20" d="M746.6,349l-14.5-16.4C736.3,338.6,741,344.2,746.6,349z"/>
	</g>
	<line class="st20" x1="733.9" y1="1033.7" x2="744.8" y2="1024.1"/>
	<line class="st20" x1="347.3" y1="889.6" x2="367.8" y2="910.1"/>
	<line class="st20" x1="1262.6" y1="449.1" x2="1272.9" y2="459.3"/>
	<line class="st20" x1="1667.4" y1="302.1" x2="1666.3" y2="316.5"/>
	<circle class="st4" cx="1598.6" cy="1019.4" r="4.7"/>
	<g>
		<g>
			<g>
				<line class="st5" x1="390" y1="490.7" x2="390" y2="443.9"/>
				<g>
					<polygon class="st0" points="397.3,449.8 396,451.1 390,444.6 383.9,451.1 382.6,449.8 390,441.9 					"/>
				</g>
			</g>
		</g>
		<g>
			<g>
				<line class="st5" x1="410" y1="490.7" x2="410" y2="443.9"/>
				<g>
					<polygon class="st0" points="417.4,449.8 416.1,451.1 410,444.6 404,451.1 402.7,449.8 410,441.9 					"/>
				</g>
			</g>
		</g>
		<g>
			<g>
				<line class="st5" x1="369.8" y1="490.7" x2="369.8" y2="443.9"/>
				<g>
					<polygon class="st0" points="377.2,449.8 375.9,451.1 369.9,444.6 363.8,451.1 362.5,449.8 369.9,441.9 					"/>
				</g>
			</g>
		</g>
	</g>
	<path class="st4" d="M444.8,443.3c-2,0-4.1,0.2-6.1,0.6c-1.5-7.5-6.4-13.9-13.2-17.4c-6.8-3.5-14.9-3.6-21.8-0.4
		c-6.3-17.3-25.4-26.2-42.7-20c-17.3,6.3-26.2,25.4-20,42.7c-15.2,0.5-27.1,13-26.9,28.2c0.2,15.2,12.6,27.3,27.7,27.4h102.9
		c16.9,0,30.6-13.7,30.6-30.6C475.4,457,461.7,443.3,444.8,443.3z"/>
	<path class="st4" d="M1585,923.9c5.4-5.4,14.1-5.4,19.5,0l0.4,0.4c5.4,5.4,14.1,5.4,19.5,0l0,0c5.4-5.4,14.1-5.4,19.5,0v0
		c5.4,5.4,14.1,5.4,19.5,0l0.4-0.4c5.4-5.4,14.1-5.4,19.5,0"/>
</g>
</svg>
