<?xml version="1.0" encoding="utf-8"?>
<!-- Generator: Adobe Illustrator 23.0.3, SVG Export Plug-In . SVG Version: 6.00 Build 0)  -->
<svg version="1.1" xmlns="http://www.w3.org/2000/svg" xmlns:xlink="http://www.w3.org/1999/xlink" x="0px" y="0px"
	 viewBox="0 0 2000 1125" style="enable-background:new 0 0 2000 1125;" xml:space="preserve">
<style type="text/css">
	.st0{fill:#FFFFFF;}
	.st1{fill:url(#SVGID_1_);}
	.st2{fill:url(#SVGID_4_);}
	.st3{fill:#DAE4F4;}
	.st4{fill:none;stroke:#0A2A3C;stroke-width:2;stroke-miterlimit:10;}
	.st5{fill:none;stroke:#FFFFFF;stroke-width:2;stroke-miterlimit:10;}
	.st6{fill:url(#SVGID_7_);}
	.st7{opacity:0.5;fill:none;stroke:#FFFFFF;stroke-width:2;stroke-miterlimit:10;}
	.st8{fill:url(#SVGID_8_);}
	.st9{fill:url(#SVGID_9_);}
	.st10{fill:url(#SVGID_10_);}
	.st11{fill:none;stroke:#36C2DB;stroke-width:2;stroke-miterlimit:10;}
	.st12{opacity:0.5;fill:url(#SVGID_11_);}
	.st13{fill:#F26C5D;}
	.st14{opacity:0.5;fill:url(#SVGID_12_);}
	.st15{fill:#21B787;}
	.st16{opacity:0.5;fill:url(#SVGID_13_);}
	.st17{fill:#77CFE3;}
	.st18{fill:#B7E3F0;}
	.st19{fill:#FDC485;}
	.st20{fill:none;stroke:#072A3D;stroke-width:2;stroke-miterlimit:10;}
	.st21{fill:#072A3D;}
	.st22{fill:none;stroke:#0A2A3C;stroke-width:2;stroke-miterlimit:10;stroke-dasharray:10;}
	.st23{fill:#FAAA4B;}
	.st24{opacity:0.5;}
	.st25{fill:none;stroke:#B7E3F0;stroke-width:2;stroke-miterlimit:10;}
	.st26{fill:#0A2A3C;}
	.st27{fill:#36C2DB;}
	.st28{opacity:0.5;fill:#FDC485;}
	.st29{fill:#7F623F;}
	.st30{fill:#CD8129;}
	.st31{fill:#18160C;}
	.st32{fill:none;stroke:#0A2A3C;stroke-width:2;stroke-miterlimit:10;stroke-dasharray:10,10;}
</style>
<g id="Background">
	<rect class="st0" width="2000" height="1125"/>
	
		<radialGradient id="SVGID_1_" cx="955.6054" cy="871.0009" r="693.5666" gradientTransform="matrix(1 0 0 0.158 0 733.4012)" gradientUnits="userSpaceOnUse">
		<stop  offset="0" style="stop-color:#77CFE3"/>
		<stop  offset="0.1353" style="stop-color:#80D2E5;stop-opacity:0.8647"/>
		<stop  offset="0.3585" style="stop-color:#99DBEA;stop-opacity:0.6415"/>
		<stop  offset="0.642" style="stop-color:#C2E9F2;stop-opacity:0.358"/>
		<stop  offset="0.9718" style="stop-color:#FAFDFE;stop-opacity:2.819538e-02"/>
		<stop  offset="1" style="stop-color:#FFFFFF;stop-opacity:0"/>
	</radialGradient>
	<rect x="244.8" y="857.1" class="st1" width="1433.7" height="147.9"/>
	<g>
		<defs>
			<rect id="SVGID_2_" x="244.8" y="857.1" width="1433.7" height="147.9"/>
		</defs>
		<clipPath id="SVGID_3_">
			<use xlink:href="#SVGID_2_"  style="overflow:visible;"/>
		</clipPath>
		<g style="clip-path:url(#SVGID_3_);">
			
				<image style="overflow:visible;" width="1084" height="205" xlink:href="60D93D005CC63DBC.png"  transform="matrix(1 0 0 1 372.0594 785.1411)">
			</image>
		</g>
	</g>
	<linearGradient id="SVGID_4_" gradientUnits="userSpaceOnUse" x1="803.0594" y1="852.4467" x2="803.0594" y2="241.7801">
		<stop  offset="0" style="stop-color:#FFFFFF;stop-opacity:0"/>
		<stop  offset="0.146" style="stop-color:#D9F0F7;stop-opacity:0.4252"/>
		<stop  offset="0.2688" style="stop-color:#C0E7F2;stop-opacity:0.783"/>
		<stop  offset="0.3432" style="stop-color:#B7E3F0"/>
		<stop  offset="1" style="stop-color:#77CFE3"/>
	</linearGradient>
	<rect x="385.6" y="241.8" class="st2" width="835" height="610.7"/>
	<g>
		<defs>
			<rect id="SVGID_5_" x="385.6" y="241.8" width="835" height="610.7"/>
		</defs>
		<clipPath id="SVGID_6_">
			<use xlink:href="#SVGID_5_"  style="overflow:visible;"/>
		</clipPath>
		<g style="clip-path:url(#SVGID_6_);">
			
				<image style="overflow:visible;" width="626" height="345" xlink:href="60D93D005CC63DBD.png"  transform="matrix(1 0 0 1 712.0594 187.5375)">
			</image>
		</g>
	</g>
	<g>
		<rect x="446.2" y="339.2" class="st3" width="152" height="152"/>
		<g>
			<line class="st4" x1="469.9" y1="467.5" x2="574.4" y2="363"/>
			<line class="st4" x1="469.9" y1="363" x2="574.4" y2="467.5"/>
		</g>
		<rect x="455.3" y="348.3" class="st5" width="133.8" height="133.8"/>
	</g>
	<g>
		<linearGradient id="SVGID_7_" gradientUnits="userSpaceOnUse" x1="522.1844" y1="636.2009" x2="522.1844" y2="754.932">
			<stop  offset="0" style="stop-color:#DAE4F4"/>
			<stop  offset="0.3557" style="stop-color:#E3EBF7;stop-opacity:0.6443"/>
			<stop  offset="0.9409" style="stop-color:#FCFDFE;stop-opacity:5.912524e-02"/>
			<stop  offset="1" style="stop-color:#FFFFFF;stop-opacity:0"/>
		</linearGradient>
		<rect x="446.2" y="625.9" class="st6" width="152" height="152"/>
		<rect x="455.3" y="635" class="st7" width="133.8" height="133.8"/>
	</g>
	<g>
		<linearGradient id="SVGID_8_" gradientUnits="userSpaceOnUse" x1="714.1844" y1="636.2009" x2="714.1844" y2="754.932">
			<stop  offset="0" style="stop-color:#DAE4F4"/>
			<stop  offset="0.3557" style="stop-color:#E3EBF7;stop-opacity:0.6443"/>
			<stop  offset="0.9409" style="stop-color:#FCFDFE;stop-opacity:5.912524e-02"/>
			<stop  offset="1" style="stop-color:#FFFFFF;stop-opacity:0"/>
		</linearGradient>
		<rect x="638.2" y="625.9" class="st8" width="152" height="152"/>
		<rect x="647.3" y="635" class="st7" width="133.8" height="133.8"/>
	</g>
	<g>
		<linearGradient id="SVGID_9_" gradientUnits="userSpaceOnUse" x1="909.0594" y1="636.2009" x2="909.0594" y2="754.932">
			<stop  offset="0" style="stop-color:#DAE4F4"/>
			<stop  offset="0.3557" style="stop-color:#E3EBF7;stop-opacity:0.6443"/>
			<stop  offset="0.9409" style="stop-color:#FCFDFE;stop-opacity:5.912524e-02"/>
			<stop  offset="1" style="stop-color:#FFFFFF;stop-opacity:0"/>
		</linearGradient>
		<rect x="833.1" y="625.9" class="st9" width="152" height="152"/>
		<rect x="842.2" y="635" class="st7" width="133.8" height="133.8"/>
	</g>
	<g>
		<linearGradient id="SVGID_10_" gradientUnits="userSpaceOnUse" x1="1101.0594" y1="636.2009" x2="1101.0594" y2="754.932">
			<stop  offset="0" style="stop-color:#DAE4F4"/>
			<stop  offset="0.3557" style="stop-color:#E3EBF7;stop-opacity:0.6443"/>
			<stop  offset="0.9409" style="stop-color:#FCFDFE;stop-opacity:5.912524e-02"/>
			<stop  offset="1" style="stop-color:#FFFFFF;stop-opacity:0"/>
		</linearGradient>
		<rect x="1025.1" y="625.9" class="st10" width="152" height="152"/>
		<rect x="1034.2" y="635" class="st7" width="133.8" height="133.8"/>
	</g>
	<g>
		<rect x="638.2" y="339.2" class="st3" width="152" height="152"/>
		<g>
			<line class="st4" x1="661.9" y1="467.5" x2="766.4" y2="363"/>
			<line class="st4" x1="661.9" y1="363" x2="766.4" y2="467.5"/>
		</g>
		<rect x="647.3" y="348.3" class="st5" width="133.8" height="133.8"/>
	</g>
	<g>
		<rect x="833.1" y="339.2" class="st3" width="152" height="152"/>
		<rect x="842.2" y="348.3" class="st5" width="133.8" height="133.8"/>
	</g>
	<g>
		<rect x="1025.1" y="339.2" class="st3" width="152" height="152"/>
		<g>
			<line class="st11" x1="1048.8" y1="467.5" x2="1153.3" y2="363"/>
			<line class="st11" x1="1048.8" y1="363" x2="1153.3" y2="467.5"/>
		</g>
		<rect x="1034.2" y="348.3" class="st5" width="133.8" height="133.8"/>
	</g>
	<rect x="455.3" y="501.6" class="st3" width="119.9" height="8.9"/>
	<rect x="455.3" y="516.9" class="st3" width="94.2" height="8.9"/>
	<rect x="455.3" y="532.3" class="st3" width="110.9" height="8.9"/>
	<rect x="455.3" y="547.6" class="st3" width="133.8" height="8.9"/>
	<path class="st3" d="M578.7,606.8h-113c-10.8,0-19.5-8.7-19.5-19.5v0c0-10.8,8.7-19.5,19.5-19.5h113c10.8,0,19.5,8.7,19.5,19.5v0
		C598.2,598,589.5,606.8,578.7,606.8z"/>
	<g>
		<linearGradient id="SVGID_11_" gradientUnits="userSpaceOnUse" x1="465.5594" y1="587.2801" x2="572.8928" y2="587.2801">
			<stop  offset="0" style="stop-color:#F26C5D"/>
			<stop  offset="0.1188" style="stop-color:#F37466;stop-opacity:0.8812"/>
			<stop  offset="0.315" style="stop-color:#F58B7F;stop-opacity:0.685"/>
			<stop  offset="0.5641" style="stop-color:#F8B0A8;stop-opacity:0.4359"/>
			<stop  offset="0.8535" style="stop-color:#FDE3E0;stop-opacity:0.1465"/>
			<stop  offset="1" style="stop-color:#FFFFFF;stop-opacity:0"/>
		</linearGradient>
		<rect x="465.6" y="573.3" class="st12" width="107.3" height="28"/>
		<circle class="st13" cx="465.6" cy="587.3" r="14"/>
	</g>
	<rect x="855.7" y="501.6" class="st3" width="119.9" height="8.9"/>
	<rect x="855.7" y="516.9" class="st3" width="94.2" height="8.9"/>
	<rect x="855.7" y="532.3" class="st3" width="110.9" height="8.9"/>
	<rect x="855.7" y="547.6" class="st3" width="133.8" height="8.9"/>
	<path class="st3" d="M979.1,606.8h-113c-10.8,0-19.5-8.7-19.5-19.5v0c0-10.8,8.7-19.5,19.5-19.5h113c10.8,0,19.5,8.7,19.5,19.5v0
		C998.6,598,989.8,606.8,979.1,606.8z"/>
	<g>
		
			<linearGradient id="SVGID_12_" gradientUnits="userSpaceOnUse" x1="849.4779" y1="560.0533" x2="956.8112" y2="560.0533" gradientTransform="matrix(-1 0 0 -1 1828.0834 1147.3334)">
			<stop  offset="0.1054" style="stop-color:#21B787"/>
			<stop  offset="1" style="stop-color:#FFFFFF;stop-opacity:0"/>
		</linearGradient>
		<polygon class="st14" points="871.3,573.3 978.6,573.3 978.6,601.3 871.3,601.3 		"/>
		<circle class="st15" cx="978.6" cy="587.3" r="14"/>
	</g>
	<rect x="1039.2" y="501.6" class="st3" width="119.9" height="8.9"/>
	<rect x="1039.2" y="516.9" class="st3" width="94.2" height="8.9"/>
	<rect x="1039.2" y="532.3" class="st3" width="110.9" height="8.9"/>
	<rect x="1039.2" y="547.6" class="st3" width="133.8" height="8.9"/>
	<path class="st3" d="M1162.6,606.8h-113c-10.8,0-19.5-8.7-19.5-19.5v0c0-10.8,8.7-19.5,19.5-19.5h113c10.8,0,19.5,8.7,19.5,19.5v0
		C1182.1,598,1173.3,606.8,1162.6,606.8z"/>
	<g>
		
			<linearGradient id="SVGID_13_" gradientUnits="userSpaceOnUse" x1="665.9779" y1="560.0533" x2="773.3112" y2="560.0533" gradientTransform="matrix(-1 0 0 -1 1828.0834 1147.3334)">
			<stop  offset="0.1054" style="stop-color:#21B787"/>
			<stop  offset="1" style="stop-color:#FFFFFF;stop-opacity:0"/>
		</linearGradient>
		<polygon class="st16" points="1054.8,573.3 1162.1,573.3 1162.1,601.3 1054.8,601.3 		"/>
		<circle class="st15" cx="1162.1" cy="587.3" r="14"/>
	</g>
	<line class="st5" x1="409.6" y1="282.2" x2="1195.6" y2="282.2"/>
	<g>
		<path class="st0" d="M420.1,254.1c4.7,0,8.5,3.8,8.5,8.5s-3.8,8.5-8.5,8.5s-8.5-3.8-8.5-8.5S415.4,254.1,420.1,254.1 M420.1,252.1
			c-5.8,0-10.5,4.7-10.5,10.5c0,5.8,4.7,10.5,10.5,10.5s10.5-4.7,10.5-10.5C430.6,256.8,425.9,252.1,420.1,252.1L420.1,252.1z"/>
	</g>
	<circle class="st3" cx="448.9" cy="262.6" r="10.5"/>
	
		<image style="overflow:visible;opacity:0.5;" width="882" height="635" xlink:href="60D93D005CC63DB2.png"  transform="matrix(1 0 0 1 1071.7712 196.6906)">
	</image>
	
		<image style="overflow:visible;" width="888" height="481" xlink:href="60D93D005CC63DB3.png"  transform="matrix(1 0 0 1 43.0173 491.6134)">
	</image>
</g>
<g id="chart">
	<g>
		<g>
			<rect x="1587.9" y="616" class="st17" width="36.2" height="110.5"/>
			<rect x="1640.5" y="588" class="st3" width="36.2" height="138.5"/>
			<rect x="1693.2" y="575.1" class="st18" width="36.2" height="151.3"/>
			<rect x="1745.9" y="508.2" class="st19" width="36.2" height="218.2"/>
		</g>
		<g>
			<g>
				<line class="st20" x1="1577.7" y1="633.5" x2="1771.3" y2="478.8"/>
				<g>
					<polygon class="st21" points="1771.2,489.4 1769.3,489.1 1770.7,479.3 1760.9,478.6 1761,476.6 1773,477.5 					"/>
				</g>
			</g>
		</g>
		<polyline class="st22" points="1577.7,643.3 1577.7,736.1 1825,736.1 		"/>
		<circle class="st20" cx="1782" cy="608.9" r="20.9"/>
		<line class="st20" x1="1833.9" y1="565.8" x2="1869.4" y2="565.8"/>
		<line class="st20" x1="1833.9" y1="575.1" x2="1869.4" y2="575.1"/>
		<line class="st20" x1="1833.9" y1="584.4" x2="1869.4" y2="584.4"/>
		<polyline class="st20" points="1782,608.9 1833.9,593.7 1869.4,593.7 		"/>
		<circle class="st23" cx="1782" cy="608.9" r="6.8"/>
	</g>
</g>
<g id="letter">
	<g>
		<path class="st23" d="M1643.9,429.6h-231.7c-2.3,0-4.2-1.9-4.2-4.2V275.1c0-2.3,1.9-4.2,4.2-4.2h231.7c2.3,0,4.2,1.9,4.2,4.2
			v150.3C1648.1,427.8,1646.2,429.6,1643.9,429.6z"/>
		<polyline class="st5" points="1414.5,278.1 1528.1,353.2 1641.7,278.1 		"/>
		<path class="st19" d="M1619.9,458.6h-231.7c-2.3,0-4.2-1.9-4.2-4.2V304.1c0-2.3,1.9-4.2,4.2-4.2h231.7c2.3,0,4.2,1.9,4.2,4.2
			v150.3C1624.1,456.8,1622.2,458.6,1619.9,458.6z"/>
		<g class="st24">
			<defs>
				<path id="SVGID_14_" class="st24" d="M1619.9,461.5h-231.7c-2.3,0-4.2-1.9-4.2-4.2V307c0-2.3,1.9-4.2,4.2-4.2h231.7
					c2.3,0,4.2,1.9,4.2,4.2v150.3C1624.1,459.6,1622.2,461.5,1619.9,461.5z"/>
			</defs>
			<clipPath id="SVGID_15_">
				<use xlink:href="#SVGID_14_"  style="overflow:visible;"/>
			</clipPath>
		</g>
		<polyline class="st5" points="1390.5,307.1 1504.1,382.2 1617.7,307.1 		"/>
		<path class="st15" d="M1594.9,489h-231.7c-2.3,0-4.2-1.9-4.2-4.2V334.5c0-2.3,1.9-4.2,4.2-4.2h231.7c2.3,0,4.2,1.9,4.2,4.2v150.3
			C1599.1,487.1,1597.2,489,1594.9,489z"/>
		<polyline class="st5" points="1365.5,337.4 1479.1,412.5 1592.7,337.4 		"/>
		<g>
			<line class="st25" x1="1365.5" y1="482.3" x2="1466.1" y2="412.5"/>
			<line class="st25" x1="1592.7" y1="482.3" x2="1492.1" y2="412.5"/>
		</g>
	</g>
</g>
<g id="computer">
	<g>
		<g>
			<path class="st26" d="M1512.1,473.6c9.4,0,17,7.6,17,17v278.5c0,9.4-7.6,17-17,17h-396.5c-9.4,0-17-7.6-17-17V490.6
				c0-9.4,7.6-17,17-17H1512.1 M1512.1,471.6h-396.5c-10.5,0-19,8.5-19,19v278.5c0,10.5,8.5,19,19,19h396.5c10.5,0,19-8.5,19-19
				V490.6C1531.1,480.1,1522.6,471.6,1512.1,471.6L1512.1,471.6z"/>
		</g>
		<path class="st18" d="M1530.1,788.1h-396.5c-10.5,0-19-8.5-19-19V490.6c0-10.5,8.5-19,19-19h396.5c10.5,0,19,8.5,19,19v278.5
			C1549.1,779.6,1540.6,788.1,1530.1,788.1z"/>
		<g>
			<defs>
				<path id="SVGID_16_" d="M1530.1,788.1h-396.5c-10.5,0-19-8.5-19-19V490.6c0-10.5,8.5-19,19-19h396.5c10.5,0,19,8.5,19,19v278.5
					C1549.1,779.6,1540.6,788.1,1530.1,788.1z"/>
			</defs>
			<clipPath id="SVGID_17_">
				<use xlink:href="#SVGID_16_"  style="overflow:visible;"/>
			</clipPath>
			<g style="clip-path:url(#SVGID_17_);">
				
					<image style="overflow:visible;" width="237" height="201" xlink:href="60D93D005CC63DB4.png"  transform="matrix(1 0 0 1 1205.7729 661.3634)">
				</image>
			</g>
		</g>
		<g>
			<defs>
				<path id="SVGID_18_" d="M1530.1,788.1h-396.5c-10.5,0-19-8.5-19-19V490.6c0-10.5,8.5-19,19-19h396.5c10.5,0,19,8.5,19,19v278.5
					C1549.1,779.6,1540.6,788.1,1530.1,788.1z"/>
			</defs>
			<clipPath id="SVGID_19_">
				<use xlink:href="#SVGID_18_"  style="overflow:visible;"/>
			</clipPath>
			<g style="clip-path:url(#SVGID_19_);">
				
					<image style="overflow:visible;" width="398" height="471" xlink:href="60D93D005CC63DB1.png"  transform="matrix(1 0 0 1 1258.6146 319.9884)">
				</image>
			</g>
		</g>
		<g>
			<polygon class="st0" points="1339.1,755.1 1307.2,709.1 1394.4,709.1 1427,755.1 			"/>
			<path class="st26" d="M1393.9,710.1l31.2,44h-85.4l-30.5-44H1393.9 M1394.9,708.1h-89.6l33.2,48h90.3L1394.9,708.1L1394.9,708.1z
				"/>
		</g>
		<g>
			<rect x="1339.6" y="757.1" class="st0" width="88.3" height="105"/>
			<path class="st26" d="M1426.9,758.1v103h-86.3v-103H1426.9 M1428.9,756.1h-90.3v107h90.3V756.1L1428.9,756.1z"/>
		</g>
		<g>
			<g>
				<line class="st4" x1="1357.7" y1="808.6" x2="1409.7" y2="808.6"/>
			</g>
			<g>
				<line class="st4" x1="1357.7" y1="816.6" x2="1409.7" y2="816.6"/>
			</g>
			<g>
				<line class="st4" x1="1357.7" y1="824.6" x2="1409.7" y2="824.6"/>
			</g>
			<g>
				<line class="st4" x1="1357.7" y1="784.6" x2="1409.7" y2="784.6"/>
			</g>
			<g>
				<line class="st4" x1="1357.7" y1="792.6" x2="1409.7" y2="792.6"/>
			</g>
			<g>
				<line class="st4" x1="1357.7" y1="800.6" x2="1409.7" y2="800.6"/>
			</g>
			<g>
				<line class="st4" x1="1357.7" y1="832.6" x2="1409.7" y2="832.6"/>
			</g>
			<g>
				<line class="st4" x1="1357.7" y1="840.6" x2="1409.7" y2="840.6"/>
			</g>
		</g>
		<g>
			<path class="st0" d="M1306.3,862.1c0.5-6.4,5.9-11.5,12.5-11.5h20.5v11.5H1306.3z"/>
			<path class="st26" d="M1338.3,851.6v9.5h-30.8c0.9-5.4,5.7-9.5,11.3-9.5H1338.3 M1340.3,849.6h-21.5c-7.5,0-13.5,6-13.5,13.5h35
				V849.6L1340.3,849.6z"/>
		</g>
		<g>
			<g>
				<line class="st4" x1="1367.1" y1="583.7" x2="1367.1" y2="635.7"/>
			</g>
			<g>
				<line class="st4" x1="1349.3" y1="583.7" x2="1349.3" y2="635.7"/>
			</g>
			<g>
				<line class="st4" x1="1331.4" y1="583.7" x2="1331.4" y2="635.7"/>
			</g>
		</g>
		<circle class="st4" cx="1484.6" cy="756.1" r="5.8"/>
		<circle class="st4" cx="1503.6" cy="756.1" r="5.8"/>
		<circle class="st4" cx="1463.4" cy="756.1" r="5.8"/>
		<g>
			<rect x="1306.3" y="696.6" class="st0" width="87.2" height="10.5"/>
			<path class="st26" d="M1392.6,697.6v8.5h-85.2v-8.5H1392.6 M1394.6,695.6h-89.2v12.5h89.2V695.6L1394.6,695.6z"/>
		</g>
	</g>
</g>
<g id="bulb">
	<g>
		<path class="st23" d="M465.6,678.1c-48.4-27-109.5-9.9-136.9,38.2c-27.6,48.5-10.2,110.9,38.6,138.1
			c33.2,18.5,72.4,16.3,102.5-2.5c5.5-3.4,12.5-3.5,18.2-0.3l-0.7-0.4l38.6-69.3l0.7,0.4c-5.7-3.2-9.3-9.2-9.3-15.8
			C517.5,731.1,498.8,696.6,465.6,678.1z"/>
		<path class="st27" d="M533.8,784.2l-40.3,72.2c-1.1,1.9-3.5,2.6-5.5,1.6l-1.3-0.7c-1.9-1.1-2.6-3.5-1.6-5.5l40.3-72.2
			c1.1-1.9,3.5-2.6,5.5-1.6l1.3,0.7C534.2,779.8,534.9,782.3,533.8,784.2z"/>
		<path class="st18" d="M512.2,860c8.5,4.7,20.7-0.8,27.1-12.5l11.3-20.3c6.5-11.6,4.9-24.9-3.7-29.7L512.2,860z"/>
		<path class="st18" d="M541.2,790.5l-38.5,69c-1.1,1.9-3.5,2.6-5.5,1.6l-1.3-0.7c-1.9-1.1-2.6-3.5-1.6-5.5l38.5-69
			c1.1-1.9,3.5-2.6,5.5-1.6l1.3,0.7C541.6,786.1,542.3,788.5,541.2,790.5z"/>
		<path class="st27" d="M549.5,795.1l-38.5,69c-1.1,1.9-3.5,2.6-5.5,1.6l-1.3-0.7c-1.9-1.1-2.6-3.5-1.6-5.5l38.5-69
			c1.1-1.9,3.5-2.6,5.5-1.6l1.3,0.7C549.9,790.7,550.6,793.2,549.5,795.1z"/>
		
			<image style="overflow:visible;" width="226" height="215" xlink:href="60D93D005CC63DB0.png"  transform="matrix(0.3233 1.1381 -1.1381 0.3233 496.1586 601.2801)">
		</image>
		<polyline class="st4" points="495.2,833.9 480.1,825.5 501.1,787.8 516.2,796.2 		"/>
		<polyline class="st4" points="487,813.1 391.6,783.3 385.2,776.2 399.5,780.5 397.5,789.8 		"/>
		<polyline class="st4" points="493.9,800.7 419.4,731.4 426.5,730.4 419,739.5 413.3,725.9 		"/>
		<polyline class="st4" points="421,792.5 419.1,785.1 426,782.9 424.1,775.4 431.7,773 429.8,765.4 437.1,763.1 435.2,755.2 
			443.2,752.6 		"/>
		<circle class="st28" cx="417.1" cy="767.1" r="60.1"/>
	</g>
	<path class="st4" d="M547,833.9l25.9,12c2.6,1.2,3.6,4.3,2.3,6.8l0,0c-1.3,2.4-4.2,3.4-6.7,2.2l-26.4-12.2"/>
</g>
<g id="woman">
	<path class="st26" d="M936.1,742.6c0,0,18,51.9,69.5,65.9s-80.5,14.1-80.5,14.1l-11-63.5L936.1,742.6z"/>
	<path class="st29" d="M1201.4,839c-3.3-6.4-26.4-22.4-69.8-25.8l0,0c-12.9,5.7-27.5,6.4-40.8,1.7l-8.6-0.9c-6.1-0.6-12.2-1-18.3-1
		l-56.3-0.4l78,41.5h36l14.9-12.7c1.8-1.9,4.6-2.3,6.9-1.2c6,3,12.5,4.9,19.3,4.9h41.9L1201.4,839z"/>
	<path class="st30" d="M942.8,501.2c-3.8,12-8.8,24-16.9,33.6c-8.1,9.6-19.9,16.8-32.5,17.1c-6.4,22.7-2.6,48.1,10.3,67.9
		c-12.7,12.4-31.6,16-49.3,15.9c-8.2,0-16.6-0.8-23.7-4.8c-11.7-6.6-17.1-20.5-19.5-33.7c-2.3-12.6-3.2-26.4-3.3-39.2
		c-0.2-14.1,3.6-26.9-0.6-41c-3.3-11-9.6-21.2-10.4-32.7c-0.7-9,2.1-18,5.4-26.4c2.7-6.8,5.9-13.7,11.5-18.5
		c5.2-4.5,11.9-6.7,18.6-8.3c16.4-4.1,35-5.4,51.8-7c18.1-1.7,36.7,2.1,52.7,10.7c10.9,5.9,19,10.2,17.3,22
		C951.9,471.1,947.2,487.3,942.8,501.2z"/>
	<path class="st31" d="M873.9,455.5c-10.3,6.9-23.5,14.8-22.2,27.1c0.3-11.6-11.1-22.3-22.5-20.5s-18.6,16.9-12.3,26.6
		c3.7,5.6,10.4,8.4,15.3,13c9.1,8.4,11.5,21.8,12.4,34.1c1.1,14.2,0.9,28.8-3.9,42.1c-4.9,13.4-15.1,25.4-28.8,29.2
		c-12.9,3.7-27-0.2-40,2.8c-21,4.9-34.5,30.1-27.1,50.4c-29.1,0.9-58.4-6.4-83.8-20.7c-11.9-6.7-23.1-15.1-31.3-26
		c-22-29.1-18.2-72.6,3.3-102c21.5-29.4,57.5-45.9,93.6-50.6c8.8-1.1,18-1.8,25.5-6.4c18-10.9,17.5-36.7,26.4-55.8
		c11.4-24.4,39.5-37.5,66.4-38.2s52.9,8.7,77.7,19c2.9-12.2,17.8-18.6,29.9-15.4c12.1,3.1,21.3,13.3,27.2,24.3
		c15.3,28.6,12.1,66.2-7.9,91.8c-7.2,9.2-17,17.2-28.6,18.4c2.2-7,4.3-14,6.5-20.9c-12,5.5-26.8,0-35.7-9.7
		c-5.2-5.7-10.7-27.7-16.1-30.2C893.1,435.5,879.1,452,873.9,455.5z"/>
	<g>
		<defs>
			<path id="SVGID_20_" d="M873.9,455.5c-10.3,6.9-23.5,14.8-22.2,27.1c0.3-11.6-11.1-22.3-22.5-20.5s-18.6,16.9-12.3,26.6
				c3.7,5.6,10.4,8.4,15.3,13c9.1,8.4,11.5,21.8,12.4,34.1c1.1,14.2,0.9,28.8-3.9,42.1c-4.9,13.4-15.1,25.4-28.8,29.2
				c-12.9,3.7-27-0.2-40,2.8c-21,4.9-34.5,30.1-27.1,50.4c-29.1,0.9-58.4-6.4-83.8-20.7c-11.9-6.7-23.1-15.1-31.3-26
				c-22-29.1-18.2-72.6,3.3-102c21.5-29.4,57.5-45.9,93.6-50.6c8.8-1.1,18-1.8,25.5-6.4c18-10.9,17.5-36.7,26.4-55.8
				c11.4-24.4,39.5-37.5,66.4-38.2s52.9,8.7,77.7,19c2.9-12.2,17.8-18.6,29.9-15.4c12.1,3.1,21.3,13.3,27.2,24.3
				c15.3,28.6,12.1,66.2-7.9,91.8c-7.2,9.2-17,17.2-28.6,18.4c2.2-7,4.3-14,6.5-20.9c-12,5.5-26.8,0-35.7-9.7
				c-5.2-5.7-10.7-27.7-16.1-30.2C893.1,435.5,879.1,452,873.9,455.5z"/>
		</defs>
		<clipPath id="SVGID_21_">
			<use xlink:href="#SVGID_20_"  style="overflow:visible;"/>
		</clipPath>
		<g style="clip-path:url(#SVGID_21_);">
			
				<image style="overflow:visible;" width="442" height="319" xlink:href="60D93D005CC63DAF.png"  transform="matrix(1 0 0 1 516.2339 395.9884)">
			</image>
		</g>
	</g>
	<path class="st4" d="M887.6,521.1c0,0,8,7.3,15,8.7"/>
	<path class="st26" d="M811.9,607.2c0,0,58.6,26.1,87.6,5.5c0,0,23.8,73.1,40.8,96.4c4.6,6.4,5.9,14.6,3.5,22.1l-21.3,67.9
		c0,0,115,6,127,9v49h-353c0,0,71-59.8,48-160C719.6,588.1,795.2,601,811.9,607.2z"/>
	<path class="st30" d="M1165.4,842c-3.3-6.4-7.5-7.8-12.6-12.5c-15.4-14.3-38-17.6-57.2-9.1c0,0-27.6,2.2-40.9-2.4l-5.2-1.8v41h16.4
		c12.6,0,25.5,0.7,35.1-7.5l4-1.1c1.8-1.9,0,0,2.3,1.1c6,3,12.5-1.5,19.3-1.5h41.9L1165.4,842z"/>
	<path class="st5" d="M984,803.9c0,0-97.5-7.2-108.5-1.8c0,0-24.4-98.7-60-146"/>
	<g>
		<defs>
			<path id="SVGID_22_" d="M984,803.9c0,0-97.5-7.2-108.5-1.8c0,0-24.4-98.7-60-146L779,644l-30,30.5L733,728l70.1,114.1l39.1,9.8
				l104.3,2.2l57-9.5L1015,825l-7.4-20.8L984,803.9z"/>
		</defs>
		<clipPath id="SVGID_23_">
			<use xlink:href="#SVGID_22_"  style="overflow:visible;"/>
		</clipPath>
		<g style="clip-path:url(#SVGID_23_);">
			
				<image style="overflow:visible;" width="288" height="203" xlink:href="60D93D005CC63DCA.png"  transform="matrix(1 0 0 1 776.0594 644.8997)">
			</image>
		</g>
	</g>
	<path class="st5" d="M753.9,723.4c0,0,30.3,110.2,76,129"/>
	<line class="st5" x1="922.6" y1="799.1" x2="938.5" y2="748.4"/>
	<path class="st26" d="M1287.6,857.1c0-8.3-5.3-15-14.8-15h-166.4c-5,0-9.7,1.7-13.5,4.6l0,0l-4.5,2.7c-4.6,2.8-9.5,4.9-14.7,6.5
		l-3.7,1.1L1287.6,857.1z"/>
	<rect x="1033.6" y="842.1" class="st26" width="238.7" height="15"/>
</g>
<g id="Details">
	<path class="st3" d="M368.1,295c-2.3,0-4.5,0.2-6.7,0.7c-1.7-8.3-7-15.4-14.6-19.2c-7.6-3.8-16.4-4-24.1-0.4
		c-7-19.2-28.1-29-47.3-22.1c-19.2,7-29,28.1-22.1,47.3c-16.8,0.5-30,14.4-29.8,31.2c0.3,16.8,13.9,30.3,30.7,30.3h113.9
		c18.7,0,33.9-15.2,33.9-33.9C402,310.2,386.8,295,368.1,295z"/>
	<g>
		<g>
			<path class="st32" d="M675.3,576.9C609.9,579,573.6,677,451.5,644.2c-145.1-39-132.3-196.8-132.3-196.8V393"/>
			<g>
				<polygon class="st26" points="668.2,569.2 666.9,570.8 674.6,577 667.7,584.2 669.2,585.6 677.5,576.9 				"/>
			</g>
		</g>
	</g>
	<g>
		<line class="st20" x1="216.6" y1="572.3" x2="222.4" y2="540.8"/>
		<line class="st20" x1="205.2" y1="553.3" x2="233.8" y2="559.8"/>
	</g>
	<g>
		<line class="st20" x1="1362.1" y1="165" x2="1390.8" y2="150.9"/>
		<line class="st20" x1="1370.5" y1="144.5" x2="1382.5" y2="171.3"/>
	</g>
	<g>
		<line class="st20" x1="439.3" y1="153.8" x2="437.5" y2="137.1"/>
		<line class="st20" x1="430.7" y1="146" x2="446.1" y2="144.9"/>
	</g>
	<g>
		<line class="st20" x1="1848.1" y1="388.3" x2="1846.3" y2="371.6"/>
		<line class="st20" x1="1839.5" y1="380.5" x2="1854.9" y2="379.4"/>
	</g>
	<g>
		<line class="st20" x1="1150.3" y1="951.1" x2="1156.9" y2="935.6"/>
		<line class="st20" x1="1146.6" y1="940.1" x2="1160.6" y2="946.6"/>
	</g>
	<circle class="st20" cx="1788.7" cy="229.1" r="6.9"/>
	<circle class="st20" cx="260.6" cy="920.7" r="3.4"/>
	<circle class="st20" cx="1070.1" cy="148.9" r="3.4"/>
	<circle class="st20" cx="312.8" cy="139.8" r="6.9"/>
	<circle class="st20" cx="189.2" cy="293.5" r="6.9"/>
	<circle class="st20" cx="202.9" cy="894.5" r="6.9"/>
	<circle class="st20" cx="835.3" cy="858.7" r="6.9"/>
	<g>
		<path class="st20" d="M710.6,190.6l-16-18.1C699.1,179.2,704.4,185.3,710.6,190.6z"/>
	</g>
	<line class="st20" x1="696.6" y1="948.6" x2="708.6" y2="938.1"/>
	<line class="st20" x1="268.5" y1="789.1" x2="291.2" y2="811.8"/>
	<line class="st20" x1="1281.9" y1="301.4" x2="1293.2" y2="312.7"/>
	<line class="st20" x1="1730" y1="138.7" x2="1728.8" y2="154.7"/>
	<circle class="st4" cx="1653.8" cy="932.8" r="5.2"/>
	<g>
		<g>
			<g>
				<line class="st5" x1="315.8" y1="347.5" x2="315.8" y2="295.7"/>
				<g>
					<polygon class="st0" points="323.9,302.3 322.5,303.6 315.8,296.4 309,303.6 307.6,302.3 315.8,293.5 					"/>
				</g>
			</g>
		</g>
		<g>
			<g>
				<line class="st5" x1="338" y1="347.5" x2="338" y2="295.7"/>
				<g>
					<polygon class="st0" points="346.2,302.3 344.7,303.6 338,296.4 331.3,303.6 329.8,302.3 338,293.5 					"/>
				</g>
			</g>
		</g>
		<g>
			<g>
				<line class="st5" x1="293.5" y1="347.5" x2="293.5" y2="295.7"/>
				<g>
					<polygon class="st0" points="301.7,302.3 300.2,303.6 293.5,296.4 286.8,303.6 285.3,302.3 293.5,293.5 					"/>
				</g>
			</g>
		</g>
	</g>
	<path class="st4" d="M376.5,295c-2.3,0-4.5,0.2-6.7,0.7c-1.7-8.3-7-15.4-14.6-19.2c-7.6-3.8-16.4-4-24.1-0.4
		c-7-19.2-28.1-29-47.3-22.1c-19.2,7-29,28.1-22.1,47.3c-16.8,0.5-30,14.4-29.8,31.2c0.3,16.8,13.9,30.3,30.7,30.3h113.9
		c18.7,0,33.9-15.2,33.9-33.9C410.4,310.2,395.2,295,376.5,295z"/>
	<path class="st4" d="M1638.8,827.1c6-6,15.6-6,21.6,0l0.4,0.4c6,6,15.6,6,21.6,0l0,0c6-6,15.6-6,21.6,0v0c6,6,15.6,6,21.6,0
		l0.4-0.4c6-6,15.6-6,21.6,0"/>
</g>
</svg>
